<?xml version="1.0" standalone="no"?>
<!DOCTYPE svg PUBLIC "-//W3C//DTD SVG 20010904//EN"
 "http://www.w3.org/TR/2001/REC-SVG-20010904/DTD/svg10.dtd">
<svg version="1.0" xmlns="http://www.w3.org/2000/svg"
 width="993.000000pt" height="993.000000pt" viewBox="0 0 993.000000 993.000000"
 preserveAspectRatio="xMidYMid meet">
<metadata>
Created by potrace 1.11, written by Peter Selinger 2001-2013
</metadata>
<g transform="translate(0.000000,993.000000) scale(0.100000,-0.100000)"
fill="#000000" stroke="none">
<path d="M0 9109 c0 -729 2 -820 15 -815 12 4 14 0 9 -19 -5 -22 -3 -25 20
-25 14 0 26 -4 26 -9 0 -5 9 -11 20 -14 11 -3 25 -16 31 -30 9 -21 8 -28 -12
-51 -18 -21 -32 -26 -66 -26 l-43 0 0 -165 c0 -91 2 -165 5 -165 3 0 14 9 26
21 15 15 24 18 32 10 6 -6 21 -11 33 -11 13 0 26 -5 30 -11 9 -16 11 -109 1
-109 -9 0 2 -51 14 -64 4 -5 5 -15 2 -22 -7 -20 7 -17 23 4 12 15 13 14 4 -10
-6 -18 -6 -28 0 -28 6 0 10 -7 10 -16 0 -26 40 -56 57 -43 16 14 15 16 18
-106 1 -49 4 -103 6 -120 4 -28 2 -30 -35 -33 -22 -2 -51 -11 -65 -21 -31 -21
-71 -25 -71 -7 0 21 -27 40 -33 24 -4 -10 -6 -10 -6 0 -1 6 -8 12 -16 12 -8 0
-15 -6 -15 -12 0 -9 -4 -8 -10 2 -6 10 -10 -159 -10 -486 0 -393 3 -503 13
-506 6 -3 39 -4 72 -3 46 1 71 7 108 30 35 20 51 25 56 16 7 -11 103 -6 124 6
4 2 10 -3 13 -11 3 -9 10 -13 16 -10 5 3 12 -3 15 -15 3 -11 9 -19 13 -16 14
9 60 -14 60 -29 0 -22 32 -36 53 -24 13 7 27 6 48 -2 18 -8 42 -9 66 -4 48 9
65 7 81 -14 12 -16 14 -16 22 -1 7 12 21 15 57 12 32 -3 54 0 67 10 15 11 29
12 59 5 29 -6 47 -5 68 6 21 10 38 12 60 6 36 -11 59 -4 59 19 1 14 2 14 14
-1 20 -27 46 -22 57 12 13 35 36 39 69 10 27 -23 69 -28 63 -8 -5 14 72 3 87
-12 8 -8 22 -16 30 -18 8 -2 22 -10 31 -18 22 -20 69 -2 69 26 0 25 27 26 35
1 7 -23 38 -22 64 4 33 33 46 42 57 38 6 -2 19 6 29 17 24 27 35 25 35 -5 0
-29 -16 -34 -23 -7 -4 16 -5 16 -6 0 0 -10 9 -22 20 -29 12 -6 19 -7 16 -2 -3
4 1 17 9 27 12 17 19 18 48 9 26 -8 39 -7 59 5 24 15 27 15 46 -9 17 -21 18
-25 3 -30 -13 -5 -12 -7 6 -11 12 -4 20 -2 16 3 -3 5 0 9 5 9 6 0 11 -6 12
-12 0 -7 4 -3 9 9 5 12 17 21 27 21 10 0 26 3 36 7 10 4 17 3 17 -4 0 -9 5 -9
21 -1 16 9 24 8 39 -5 13 -12 20 -13 25 -5 4 7 16 10 26 7 10 -3 22 -1 25 4 8
14 44 11 44 -4 0 -8 11 -24 24 -36 17 -16 26 -38 31 -79 3 -31 13 -71 20 -88
30 -64 26 -200 -6 -249 -16 -25 -38 -115 -39 -160 -2 -134 19 -385 34 -416 9
-18 16 -43 16 -56 0 -13 5 -33 10 -43 13 -25 50 -221 52 -280 2 -55 -9 -103
-22 -95 -6 3 -10 2 -10 -4 0 -5 -7 -16 -15 -25 -14 -13 -19 -13 -51 0 -34 14
-36 14 -41 -6 -5 -20 -6 -20 -19 -2 -18 25 -54 35 -61 16 -6 -16 -43 -19 -43
-4 0 6 -7 10 -15 10 -8 0 -15 6 -16 13 -1 6 -5 1 -9 -13 -5 -15 -8 -18 -9 -8
-1 22 -28 26 -71 12 -20 -7 -37 -8 -40 -3 -3 5 -17 7 -30 4 -14 -3 -31 2 -42
12 -11 10 -18 12 -18 5 0 -7 -9 -12 -20 -12 -11 0 -20 -5 -20 -11 0 -14 -42 0
-58 20 -10 14 -11 11 -5 -14 5 -26 4 -28 -9 -17 -8 6 -26 12 -39 12 -98 1
-186 7 -194 12 -13 8 -67 5 -83 -5 -14 -10 -52 0 -52 13 0 5 -22 6 -48 3 -30
-3 -58 -1 -71 6 -17 10 -26 10 -37 0 -10 -8 -14 -8 -14 0 0 6 -4 11 -10 11 -5
0 -10 -6 -10 -14 0 -12 -5 -12 -30 -3 -22 8 -33 9 -38 1 -5 -8 -30 -8 -85 -1
-61 8 -80 8 -86 -2 -6 -10 -10 -9 -14 3 -7 17 -67 23 -67 7 0 -5 -18 -1 -40
10 -45 22 -81 26 -62 7 16 -16 16 -33 0 -21 -7 5 -33 8 -58 6 -25 -2 -119 -6
-210 -7 -91 -2 -167 -5 -170 -6 -3 -1 -9 -1 -15 0 -5 1 -19 4 -30 6 -11 3 -69
7 -130 9 -60 2 -123 6 -140 7 l-30 3 -2 -985 c-2 -542 1 -980 5 -973 4 6 23
15 42 20 24 7 35 15 34 27 -1 9 13 31 32 48 19 18 34 37 34 44 0 6 11 16 25
22 14 6 25 17 25 23 0 7 10 9 26 6 20 -3 28 1 36 19 8 16 17 22 28 19 11 -3
21 4 30 20 7 14 16 25 20 25 3 0 23 16 43 35 20 19 44 35 52 35 16 0 65 46 65
60 0 6 11 10 24 10 14 0 27 4 31 10 3 5 12 7 20 4 9 -4 18 3 24 19 6 14 26 33
45 42 19 9 40 23 47 31 6 8 24 14 39 14 19 0 30 7 38 25 11 25 20 29 55 26 9
-1 20 4 23 13 11 28 63 3 64 -31 0 -6 7 -18 15 -27 13 -13 13 -19 3 -36 -7
-11 -18 -20 -25 -20 -7 0 -13 -7 -13 -15 0 -8 -7 -15 -15 -15 -8 0 -15 -5 -15
-11 0 -7 -9 -9 -24 -5 -16 4 -26 1 -29 -8 -3 -8 -18 -20 -34 -28 -21 -10 -27
-19 -25 -37 2 -15 0 -21 -7 -17 -6 4 -11 0 -11 -9 0 -9 7 -15 17 -13 10 2 18
-4 19 -12 0 -8 2 -20 2 -26 2 -13 55 -39 100 -49 28 -6 32 -10 26 -28 -3 -12
-7 -22 -8 -22 -37 -15 -56 -28 -56 -40 0 -8 -4 -15 -10 -15 -5 0 -10 7 -10 16
0 8 -5 12 -10 9 -15 -9 -60 22 -60 40 0 32 -19 13 -25 -25 -4 -22 -11 -40 -15
-40 -5 0 -7 -15 -4 -33 3 -20 -1 -39 -11 -51 -15 -19 -15 -19 -28 -1 -11 14
-16 15 -22 5 -4 -7 -3 -15 3 -19 5 -3 10 -23 9 -44 -1 -34 -3 -37 -29 -37 -30
0 -40 19 -10 21 13 0 14 2 2 6 -8 4 -20 13 -27 22 -10 13 -12 8 -13 -31 0 -27
-5 -48 -10 -48 -6 0 -15 -12 -21 -27 l-10 -27 -31 33 c-22 24 -28 35 -19 44
18 18 13 39 -8 32 -14 -4 -21 2 -31 25 -8 19 -18 29 -26 26 -7 -3 -16 -1 -20
5 -3 6 -13 8 -21 5 -10 -4 -13 -2 -10 7 3 7 -4 24 -14 38 l-19 24 0 -30 c0
-23 -3 -27 -10 -15 -8 12 -10 12 -10 1 0 -11 -3 -11 -15 -1 -17 14 -17 14 -33
-15 -11 -20 -11 -20 -12 1 0 12 -6 27 -14 33 -12 10 -17 8 -26 -8 -6 -12 -17
-21 -26 -21 -8 0 -19 -10 -24 -22 -14 -35 -36 -59 -51 -56 -8 2 -15 -7 -17
-20 -3 -17 -10 -22 -36 -22 -17 0 -37 -5 -44 -12 -9 -9 -12 -72 -11 -227 1
-119 3 -208 6 -198 6 23 23 22 23 -2 0 -25 20 -38 20 -14 1 10 7 0 15 -22 18
-48 17 -45 5 -45 -5 0 -10 6 -10 14 0 26 -17 26 -41 0 l-23 -25 22 -6 c24 -6
31 -43 8 -43 -22 0 -26 -24 -26 -146 0 -121 8 -137 38 -84 19 33 47 40 55 13
2 -10 8 -25 11 -34 4 -10 -3 -25 -20 -42 -20 -21 -30 -24 -44 -17 -10 6 -23
10 -29 10 -8 0 -11 -283 -11 -945 l0 -945 1505 0 1505 0 -5 23 c-3 12 -14 61
-25 109 -11 47 -29 115 -41 149 -19 56 -21 68 -10 109 17 62 55 100 101 100
42 0 65 -20 75 -65 4 -16 10 -39 15 -50 32 -75 65 -175 89 -265 l28 -105 1307
-2 1306 -3 0 33 c0 42 20 85 43 91 14 3 24 -10 47 -60 l29 -64 640 0 640 0 7
58 c10 81 31 132 75 173 60 58 114 59 125 3 8 -41 20 -52 29 -24 6 19 15 20
129 20 98 0 126 -3 136 -15 11 -13 14 -13 24 0 6 8 28 15 50 17 54 3 64 -15
59 -104 -4 -55 -1 -78 11 -93 12 -16 18 -18 33 -9 15 9 18 27 21 103 3 88 4
92 28 101 28 11 70 4 81 -13 3 -6 5 -57 4 -114 l-2 -103 26 0 27 0 -2 93 c-3
151 -8 139 53 135 l52 -3 3 -113 c3 -111 3 -112 27 -112 24 0 24 1 27 113 l3
112 35 0 c38 0 45 -9 100 -138 14 -31 28 -57 32 -57 5 0 8 33 9 73 2 110 7
122 54 122 l40 0 3 -113 c2 -104 4 -112 22 -112 18 0 20 7 20 60 0 104 40 162
126 181 41 9 59 9 82 0 48 -20 81 -62 91 -116 11 -59 0 -92 -33 -101 -37 -9
-64 11 -71 54 -10 58 -13 62 -40 62 -31 0 -45 -30 -45 -96 l0 -44 126 0 c116
0 126 1 119 18 -51 121 7 226 122 224 73 -2 143 -58 143 -115 0 -31 -19 -46
-64 -54 -34 -5 -37 -4 -51 31 -19 45 -48 46 -53 3 -3 -23 5 -37 39 -68 l42
-39 134 0 133 0 0 64 c0 67 -6 76 -51 76 -28 0 -43 44 -26 78 13 27 13 27 117
24 135 -3 142 -5 159 -42 13 -31 13 -31 25 -9 6 12 24 32 39 43 52 38 186 24
223 -23 12 -16 54 -26 54 -13 0 4 -5 13 -12 20 -9 9 -9 12 1 12 9 0 12 54 10
243 -1 133 -4 246 -6 250 -3 5 -12 -1 -20 -13 -12 -17 -13 -24 -3 -30 9 -5 9
-9 1 -14 -6 -4 -11 -2 -11 4 0 6 -5 8 -10 5 -6 -4 -8 -16 -4 -28 5 -18 4 -20
-6 -10 -10 9 -17 7 -31 -11 -10 -13 -44 -36 -76 -51 -67 -31 -236 -70 -267
-60 -11 4 -113 10 -226 13 -202 7 -206 8 -265 37 -40 20 -71 45 -94 75 -18 25
-49 62 -68 83 -19 21 -44 59 -55 85 -27 58 -27 84 -31 832 -3 545 -8 648 -32
594 -5 -10 -9 -391 -9 -845 -1 -684 -3 -829 -15 -842 -15 -19 -84 -22 -253
-10 l-98 6 -12 33 c-6 18 -22 37 -35 43 -21 10 -23 17 -24 83 -4 280 -15 578
-21 584 -10 9 -54 -38 -63 -66 -4 -12 -13 -19 -20 -16 -8 3 -16 -5 -19 -20 -4
-14 -12 -23 -19 -21 -13 4 -14 20 -2 52 6 16 5 17 -4 5 -28 -37 5 70 46 151
24 47 42 96 41 110 -2 13 2 24 9 24 24 0 28 22 30 183 1 92 6 259 10 372 4
113 4 210 0 215 -5 6 -38 10 -75 10 -67 0 -67 0 -77 32 -5 18 -13 33 -17 33
-4 0 -17 9 -28 20 -18 18 -20 33 -20 163 0 99 4 148 13 160 9 13 37 20 107 28
52 5 120 14 150 20 145 27 152 38 116 178 -31 124 -41 239 -27 314 10 57 10
60 -18 95 -40 50 -58 114 -42 148 9 21 14 24 25 15 11 -9 18 -8 30 4 21 21 20
30 -3 52 -14 13 -20 31 -19 59 0 52 -28 113 -59 125 -24 9 -30 24 -13 34 6 3
10 12 9 18 0 9 -2 9 -6 0 -7 -18 -23 -16 -23 2 0 8 5 15 10 15 6 0 10 9 10 21
0 13 -4 18 -12 13 -8 -5 -9 3 -4 32 10 52 7 204 -5 226 -5 9 -6 48 -3 85 6 64
4 70 -25 113 -28 41 -31 52 -31 126 0 69 -5 91 -34 158 -27 64 -32 84 -26 113
5 20 6 41 4 47 -3 7 2 26 11 42 21 40 19 56 -10 90 -14 16 -34 56 -45 89 -20
60 -18 96 5 125 31 38 37 60 24 98 -7 20 -25 49 -40 65 -16 15 -34 47 -40 70
-15 53 -49 128 -66 145 -7 7 -13 17 -13 22 0 5 -11 19 -24 32 -13 13 -36 57
-52 98 -34 91 -37 96 -87 122 -22 11 -45 24 -51 29 -6 5 -31 24 -56 42 -33 24
-49 45 -62 82 -25 69 -23 107 12 208 17 49 30 98 30 109 0 11 10 36 21 55 19
31 21 44 15 109 -5 64 -2 85 19 146 14 40 25 94 25 123 0 31 8 66 20 89 10 21
24 62 30 90 10 50 12 70 26 215 5 53 16 91 36 129 32 62 36 117 13 182 -19 54
-19 103 -1 160 8 25 25 79 37 120 13 41 35 96 50 122 15 26 35 69 45 95 16 45
16 54 1 119 -9 40 -33 100 -56 140 -22 38 -47 96 -54 129 -48 199 -173 385
-338 500 -42 29 -82 59 -90 67 -8 8 -27 23 -44 33 -16 11 -57 40 -90 66 -68
53 -222 149 -240 149 -6 0 -45 23 -85 51 -40 27 -87 57 -104 66 -16 8 -53 36
-80 62 -120 110 -181 145 -289 165 -41 8 -91 22 -112 30 -20 9 -51 16 -67 16
-17 0 -53 16 -86 37 -31 21 -68 43 -82 50 -14 8 -52 40 -84 73 -61 62 -92 74
-117 44 -9 -11 -28 -15 -68 -13 -35 1 -82 -6 -126 -20 -97 -31 -199 -38 -261
-18 -27 8 -67 18 -88 22 -22 4 -49 13 -60 21 -11 8 -32 14 -47 14 -29 0 -89
46 -89 67 0 7 -4 13 -10 13 -5 0 -10 18 -10 40 0 22 4 40 9 40 5 0 11 17 14
38 3 20 9 49 12 65 l7 27 -508 0 c-430 0 -505 -2 -489 -14 11 -7 43 -16 72
-19 29 -3 63 -12 75 -19 13 -7 28 -11 33 -10 6 0 21 -14 35 -33 20 -27 31 -34
55 -32 26 2 30 -2 33 -27 3 -26 1 -28 -20 -23 -45 12 -274 -29 -304 -54 -11
-9 -60 -21 -151 -38 -26 -5 -46 -4 -53 3 -5 5 -10 7 -10 3 0 -4 -13 -1 -30 8
-37 19 -65 19 -95 -1 -15 -10 -25 -12 -25 -5 0 15 -73 14 -89 -1 -11 -12 -59
-15 -231 -18 -24 -1 -155 8 -155 10 0 1 -11 3 -24 6 -38 7 -74 52 -66 83 4 14
7 30 8 35 4 19 78 75 92 69 8 -3 15 0 15 5 0 6 17 14 38 18 36 6 72 29 72 46
0 4 -808 8 -1795 8 l-1795 0 0 -821z m1831 710 c38 -8 49 -16 62 -45 9 -19 21
-34 27 -34 5 0 10 -13 10 -29 0 -26 -5 -30 -44 -40 -66 -16 -145 -14 -152 4
-4 8 -15 15 -25 15 -10 0 -19 6 -19 14 0 8 -8 28 -17 46 -17 30 -17 32 0 44 9
7 17 18 17 24 0 14 82 14 141 1z m-669 -17 c17 -17 13 -102 -5 -102 -7 0 -20
-9 -30 -20 -21 -25 -88 -27 -112 -3 -18 18 -15 85 5 91 5 2 10 10 10 17 0 28
107 42 132 17z m1291 11 c-7 -2 -21 -2 -30 0 -10 3 -4 5 12 5 17 0 24 -2 18
-5z m28 -41 c-6 -2 -11 -20 -11 -40 0 -26 -6 -41 -20 -49 -15 -10 -21 -10 -27
0 -5 8 -9 4 -13 -12 -3 -14 -12 -26 -20 -29 -13 -3 -13 -2 0 7 11 9 3 11 -35
9 -45 -3 -50 -5 -53 -28 -2 -20 -1 -22 7 -10 7 10 11 11 11 3 0 -7 8 -13 17
-13 46 0 153 -45 153 -65 0 -8 6 -15 14 -15 8 0 16 -8 18 -17 6 -29 -3 -63
-17 -63 -8 0 -16 -8 -19 -18 -5 -14 -19 -18 -70 -20 -57 -3 -66 -1 -80 20 -9
12 -16 18 -16 12 0 -5 -9 -10 -20 -11 -11 -1 -20 2 -20 8 0 5 -7 9 -15 9 -8 0
-15 5 -15 10 0 17 -44 29 -52 15 -6 -11 -17 -10 -55 1 -26 8 -49 10 -52 6 -10
-15 -40 -22 -47 -11 -3 6 -3 21 0 35 6 21 12 24 55 24 34 0 51 5 55 15 7 20
33 19 45 -2 6 -10 11 -13 11 -7 0 7 9 14 20 17 12 3 20 14 20 25 0 11 7 22 15
26 21 8 19 52 -5 76 -16 16 -18 25 -10 45 10 25 12 27 53 28 12 0 32 11 44 23
26 29 135 39 142 14 2 -8 -2 -16 -8 -18z m641 -17 c24 4 41 -20 33 -46 -7 -22
-8 -22 -21 -5 -7 11 -20 16 -28 13 -9 -4 -18 -2 -21 4 -8 13 5 54 14 42 3 -6
14 -9 23 -8z m-2382 -51 c0 -8 -7 -14 -15 -14 -8 0 -15 9 -15 20 0 13 5 18 15
14 8 -4 15 -12 15 -20z m2547 -26 c-3 -7 -5 -2 -5 12 0 14 2 19 5 13 2 -7 2
-19 0 -25z m-2449 -122 c3 -3 14 -6 24 -6 15 0 18 -8 18 -50 0 -38 -4 -50 -15
-50 -9 0 -28 -11 -43 -25 -15 -14 -32 -25 -38 -25 -6 0 -17 -7 -25 -16 -9 -11
-30 -15 -78 -14 -87 2 -85 2 -71 -15 10 -12 7 -16 -16 -25 -16 -6 -44 -8 -64
-4 -19 3 -53 8 -74 10 -22 2 -42 8 -45 13 -3 4 -16 11 -28 15 -24 8 -28 23
-23 86 2 37 17 63 30 55 4 -3 13 2 20 10 7 8 23 15 36 15 13 0 24 4 24 9 0 12
92 11 108 -2 9 -7 12 -4 12 10 0 18 7 19 121 17 66 -2 123 -5 127 -8z m149 -4
c6 2 24 -11 40 -28 16 -16 35 -28 41 -26 18 6 15 -28 -3 -34 -8 -4 -15 -12
-15 -19 0 -10 -5 -11 -25 -2 -14 7 -25 15 -25 19 0 8 -59 38 -75 38 -7 0 -18
7 -25 15 -10 12 -10 15 4 15 9 0 16 5 16 10 0 15 44 30 51 18 3 -5 10 -8 16
-6z m908 -2 c40 -15 46 -28 39 -74 -6 -38 -23 -66 -41 -66 -4 0 -17 -12 -28
-27 -31 -41 -89 -61 -183 -64 -50 -1 -87 2 -94 9 -14 14 -18 126 -6 169 10 36
21 42 103 59 68 14 165 11 210 -6z m1735 -22 c0 -6 7 -19 16 -29 14 -15 18
-16 30 -4 8 7 14 18 14 24 0 6 9 11 20 11 11 0 20 -4 20 -9 0 -5 13 -7 30 -5
16 3 39 0 52 -7 12 -7 31 -12 43 -13 15 -1 20 -8 21 -28 1 -17 -4 -28 -12 -28
-8 0 -14 -7 -14 -16 0 -8 -4 -13 -8 -10 -4 2 -14 1 -22 -4 -9 -5 -19 -5 -26 1
-8 7 -14 6 -19 -1 -9 -14 -105 -13 -105 2 0 20 -38 -28 -42 -53 -4 -31 -25
-31 -41 1 -16 31 -50 37 -85 14 -32 -22 -72 -29 -72 -13 0 14 -36 60 -42 54
-2 -3 -2 14 1 38 5 37 9 42 31 42 14 0 30 3 35 6 6 4 32 5 58 3 53 -3 102 10
92 26 -3 5 1 10 9 10 9 0 16 -5 16 -12z m-253 -70 c-3 -7 -5 -2 -5 12 0 14 2
19 5 13 2 -7 2 -19 0 -25z m-2846 -250 c27 -30 24 -43 -14 -72 -35 -27 -53
-33 -42 -16 3 6 -5 10 -18 10 -14 0 -28 -7 -31 -16 -4 -11 -13 -13 -28 -8 -13
3 -24 11 -26 15 -2 5 -12 9 -23 9 -12 0 -19 7 -19 20 0 11 -1 23 -2 27 -2 4
15 18 37 30 56 30 141 31 166 1z m3038 -17 c30 -1 33 -3 26 -23 -3 -13 -9 -34
-12 -48 -11 -48 -70 -88 -120 -81 -7 1 -13 -3 -13 -9 0 -6 -4 -8 -10 -5 -5 3
-10 -1 -10 -10 0 -13 -4 -14 -21 -5 -11 7 -23 9 -26 6 -9 -9 -43 35 -43 56 0
10 11 30 25 44 13 13 29 33 35 44 12 23 62 39 105 35 17 -2 45 -4 64 -4z
m-3404 -22 c4 -5 -1 -17 -10 -26 -14 -13 -21 -14 -36 -5 -12 8 -19 8 -19 2 0
-13 -37 -13 -45 0 -14 23 4 35 54 37 28 1 53 -3 56 -8z m1603 -17 c-1 -5 -14
-5 -28 -1 l-25 6 25 10 c24 10 36 3 28 -15z m382 12 c0 -9 5 -12 12 -8 7 5 9
2 5 -9 -3 -9 3 -27 13 -40 17 -21 18 -26 5 -31 -8 -3 -15 -14 -15 -25 0 -20
-53 -46 -71 -35 -5 3 -9 1 -9 -3 0 -15 -71 -2 -77 14 -4 9 -8 11 -12 4 -4 -6
-12 -7 -21 -1 -11 7 -12 10 -2 10 8 0 0 12 -17 26 -40 33 -39 44 3 44 35 0 55
13 37 25 -20 12 2 34 37 38 89 9 112 7 112 -9z m-664 -6 c4 -6 -1 -17 -12 -25
-16 -12 -17 -15 -4 -23 12 -7 10 -13 -12 -33 -17 -16 -29 -21 -32 -14 -2 7 -5
2 -5 -9 -1 -30 -51 -49 -51 -20 0 8 -7 17 -16 20 -12 5 -15 14 -10 37 6 29 36
71 36 50 0 -6 8 -3 18 7 20 20 78 27 88 10z m1484 -29 c0 -16 5 -29 10 -29 9
0 11 7 9 26 -1 15 47 45 66 40 11 -3 23 -6 27 -6 4 0 10 -10 14 -22 l7 -23 8
23 c5 12 12 22 17 22 22 0 48 -38 51 -72 2 -33 0 -38 -18 -38 -14 0 -21 -6
-21 -18 0 -46 -64 -69 -98 -35 -24 24 -66 31 -77 13 -9 -15 -22 -12 -30 8 -12
31 -15 101 -5 127 13 33 40 23 40 -16z m-1030 11 c0 -5 -7 -10 -16 -10 -8 0
-12 5 -9 10 3 6 10 10 16 10 5 0 9 -4 9 -10z m528 -30 c34 0 72 -18 72 -35 0
-12 -6 -15 -20 -10 -11 4 -20 2 -20 -4 0 -6 -7 -11 -15 -11 -9 0 -15 -9 -15
-25 0 -32 -4 -31 -50 5 -27 21 -39 39 -42 63 -3 26 0 33 14 33 10 0 18 -6 18
-14 0 -7 5 -10 11 -7 6 4 8 14 5 24 -5 14 -4 13 8 -1 7 -10 23 -18 34 -18z
m150 -96 c2 -32 -1 -44 -11 -44 -19 0 -63 53 -49 58 7 2 10 8 6 13 -3 5 0 9 5
9 6 0 11 7 11 15 0 12 4 13 18 4 11 -7 18 -26 20 -55z m159 28 c1 -12 -2 -22
-7 -22 -6 0 -10 7 -10 15 0 8 -4 15 -10 15 -5 0 -10 4 -10 9 0 19 33 3 37 -17z
m-257 -22 c0 -5 -7 -10 -15 -10 -8 0 -15 5 -15 10 0 6 7 10 15 10 8 0 15 -4
15 -10z m159 -159 c14 6 37 7 52 4 18 -4 32 -1 43 11 17 16 61 20 131 11 50
-6 65 -17 65 -47 0 -24 5 -29 35 -34 20 -4 40 -4 45 -1 15 9 12 -32 -3 -47
-34 -34 -39 -57 -23 -112 19 -65 20 -100 4 -114 -7 -5 -38 -18 -68 -27 -30
-10 -66 -29 -79 -42 -21 -23 -30 -25 -87 -21 -49 3 -67 9 -82 26 -22 25 -101
32 -103 10 0 -10 -2 -10 -6 0 -2 6 -10 12 -16 12 -18 0 -41 41 -29 49 6 4 12
46 14 94 2 76 0 90 -15 98 -10 6 -15 14 -12 19 3 5 1 11 -4 14 -5 4 -12 -3
-16 -14 -7 -23 -35 -27 -35 -5 0 9 6 12 15 9 9 -4 15 0 15 10 0 17 -15 22 -25
7 -3 -6 -23 -9 -45 -9 -35 0 -40 3 -40 24 0 14 -6 24 -14 24 -11 0 -12 5 -3
23 6 13 16 24 21 25 47 7 76 16 76 23 0 5 5 9 10 9 6 0 10 -10 10 -23 0 -13 6
-29 13 -36 10 -11 10 -14 0 -18 -7 -3 -13 -9 -13 -14 0 -5 9 -4 20 3 11 7 20
18 20 25 0 7 5 13 10 13 6 0 10 5 10 10 0 6 8 18 18 29 17 17 18 17 42 -4 20
-18 30 -21 49 -14z m-1489 -4 c3 0 25 3 49 7 34 7 46 5 52 -7 7 -12 16 -12 49
-4 34 9 45 8 70 -6 17 -10 30 -15 30 -10 0 4 5 1 10 -7 10 -16 13 -17 55 -19
17 -1 25 -7 25 -19 0 -14 53 -49 70 -45 3 0 14 -8 24 -18 17 -17 18 -19 3 -19
-21 0 -24 -59 -5 -78 10 -10 10 -17 0 -32 -10 -16 -10 -24 0 -40 16 -25 33
-25 50 -1 13 19 14 19 37 -5 19 -19 26 -21 41 -12 24 15 67 -5 76 -36 4 -12
11 -24 16 -27 5 -3 10 -19 11 -34 1 -21 -3 -30 -16 -33 -11 -2 -30 -14 -44
-25 -47 -42 -115 -15 -149 57 -17 36 -25 45 -29 34 -5 -13 -12 -15 -34 -7 -23
8 -28 15 -25 36 1 15 10 30 18 35 9 5 16 17 16 26 -1 21 -23 52 -39 52 -6 0
-14 6 -17 14 -7 19 -32 10 -39 -15 -7 -20 -39 -26 -50 -10 -3 6 -18 16 -34 24
-24 12 -29 12 -37 -1 -9 -13 -12 -13 -26 2 -22 21 -78 22 -78 0 0 -8 -5 -12
-10 -9 -6 4 -8 11 -5 16 11 16 -73 10 -90 -7 -15 -15 -19 -15 -53 0 -20 10
-50 28 -66 41 -25 20 -29 31 -32 85 -3 50 0 61 11 56 8 -3 17 3 20 15 4 12 15
19 33 19 15 0 34 5 42 10 8 6 26 8 40 4 13 -3 27 -6 30 -7z m620 -31 c0 -17
40 -40 40 -24 0 8 5 6 10 -4 12 -20 -5 -63 -37 -95 -13 -12 -23 -29 -23 -38 0
-10 -9 -15 -27 -15 -15 0 -41 -5 -60 -12 -18 -6 -35 -9 -39 -5 -4 3 -12 31
-19 62 -13 52 -12 58 6 76 10 10 26 19 35 19 9 0 18 9 21 20 3 11 14 20 24 20
10 0 20 4 23 9 8 12 46 2 46 -13z m1187 2 c-3 -8 -6 -5 -6 6 -1 11 2 17 5 13
3 -3 4 -12 1 -19z m-2203 -4 c9 -3 14 -10 11 -14 -3 -5 4 -11 15 -15 16 -5 20
-15 20 -51 0 -26 -4 -43 -9 -39 -6 3 -13 0 -18 -7 -4 -7 -14 -13 -20 -14 -7
-1 -20 -2 -28 -2 -8 -1 -15 -9 -15 -17 0 -17 -16 -20 -25 -5 -5 8 -11 7 -21
-1 -11 -9 -14 -8 -14 5 0 9 -4 16 -10 16 -15 0 -8 93 8 113 8 9 25 17 38 17
13 0 26 5 29 10 7 12 17 12 39 4z m1680 -294 c19 -7 24 -16 24 -37 -1 -16 4
-38 11 -50 17 -33 13 -60 -11 -77 -40 -28 -138 -14 -138 19 0 9 -7 26 -15 39
-14 22 -13 25 18 59 26 29 49 44 84 56 1 1 13 -3 27 -9z m-2334 -54 c0 -8 -4
-18 -10 -21 -5 -3 -10 -4 -10 -1 0 2 -3 11 -6 20 -4 11 -1 16 10 16 9 0 16 -6
16 -14z m247 -18 c-3 -8 -6 -5 -6 6 -1 11 2 17 5 13 3 -3 4 -12 1 -19z m-20
-10 c-3 -8 -6 -5 -6 6 -1 11 2 17 5 13 3 -3 4 -12 1 -19z m1098 13 c3 -5 1
-12 -5 -16 -5 -3 -10 1 -10 9 0 18 6 21 15 7z m645 -22 c0 -10 -53 -69 -62
-69 -12 0 -18 53 -8 64 12 15 70 19 70 5z m-1990 -14 c0 -8 -7 -15 -15 -15 -8
0 -15 -6 -16 -12 0 -10 -2 -10 -6 0 -2 6 -14 12 -25 12 -17 0 -18 3 -8 15 7 8
25 15 41 15 19 0 29 -5 29 -15z m1810 -5 c0 -5 -4 -10 -10 -10 -5 0 -10 5 -10
10 0 6 5 10 10 10 6 0 10 -4 10 -10z m655 -10 c3 -5 -1 -10 -10 -10 -9 0 -13
5 -10 10 3 6 8 10 10 10 2 0 7 -4 10 -10z m-475 -41 c0 -11 -4 -17 -10 -14 -5
3 -10 13 -10 21 0 8 5 14 10 14 6 0 10 -9 10 -21z m12 -181 c26 -12 48 -27 48
-34 0 -7 10 -20 22 -28 20 -14 23 -14 31 -1 13 24 36 17 42 -12 4 -16 8 -37
10 -47 2 -11 0 -28 -6 -38 -7 -14 -4 -28 14 -58 13 -23 27 -36 33 -31 5 4 20
5 34 0 16 -4 19 -7 8 -8 -10 -1 -18 -5 -18 -11 0 -11 23 -14 34 -3 10 10 36
13 36 3 0 -4 9 -10 20 -13 25 -6 44 -54 35 -87 -4 -14 -7 -35 -7 -47 0 -12 -6
-24 -14 -27 -8 -3 -14 -17 -14 -31 0 -14 -4 -25 -8 -25 -7 0 -35 -121 -29
-126 12 -9 57 -12 57 -4 0 5 5 10 10 10 16 0 12 -66 -5 -80 -8 -7 -15 -18 -15
-25 0 -8 -10 -22 -23 -32 -12 -10 -29 -28 -38 -40 l-15 -22 -19 30 c-11 16
-25 29 -31 29 -7 0 -10 19 -8 53 l3 52 -7 -47 c-7 -43 -22 -77 -22 -50 0 7 -5
12 -10 12 -6 0 -8 -11 -4 -25 4 -15 2 -25 -5 -25 -6 0 -11 11 -11 25 0 15 -6
25 -14 25 -8 0 -17 6 -20 13 -5 10 -7 10 -12 0 -3 -7 -16 -13 -29 -13 -13 0
-27 -5 -31 -11 -4 -7 -21 -9 -41 -6 -23 4 -36 2 -39 -7 -9 -25 -54 31 -54 67
-1 34 -20 67 -39 67 -6 0 -11 -6 -12 -12 -2 -51 -8 -81 -18 -91 -6 -6 -11 -23
-11 -39 0 -16 -12 -41 -30 -61 -32 -37 -41 -73 -15 -63 21 8 45 -3 45 -20 0
-19 -17 -18 -28 2 -8 15 -11 15 -30 -4 -11 -11 -23 -18 -26 -15 -3 3 -11 -1
-19 -9 -16 -16 -7 -52 15 -61 11 -4 14 -22 12 -73 -2 -58 0 -66 11 -51 12 17
13 17 17 0 3 -10 -1 -31 -7 -47 -12 -29 -13 -29 -20 -7 -5 16 -10 20 -18 12
-13 -13 20 -54 37 -44 21 13 50 14 58 1 13 -21 9 -55 -8 -69 -14 -11 -19 -9
-34 11 -15 19 -22 22 -31 13 -6 -6 -17 -9 -24 -6 -8 2 -24 -3 -37 -11 -14 -9
-28 -13 -33 -9 -4 5 -5 0 -2 -10 4 -10 7 -24 7 -30 0 -7 17 -13 37 -15 20 -1
44 -9 53 -17 23 -21 24 -20 40 20 16 40 30 46 30 13 0 -13 4 -29 9 -36 5 -8 3
-29 -5 -51 -17 -49 -12 -115 11 -137 17 -17 18 -17 37 6 14 17 18 33 14 52 -3
15 -1 28 3 28 8 0 24 47 26 75 1 21 17 35 41 35 23 0 25 -3 19 -28 -4 -20 0
-34 16 -50 20 -22 20 -24 4 -48 -15 -23 -15 -27 -1 -43 25 -27 31 -77 13 -104
-11 -17 -14 -40 -10 -90 4 -45 2 -67 -5 -67 -6 0 -13 17 -15 38 -3 24 -4 21
-2 -10 2 -53 1 -55 -22 -32 -12 11 -13 18 -4 27 6 6 11 16 11 21 0 6 -5 4 -10
-4 -7 -12 -12 -12 -21 -3 -10 10 -16 9 -31 -3 -16 -16 -18 -15 -28 10 -13 36
-14 36 15 36 16 0 25 6 25 16 0 8 -4 13 -9 10 -5 -3 -11 4 -14 15 -3 12 -10
18 -16 14 -6 -3 -11 1 -11 9 0 9 -9 16 -20 16 -21 0 -25 -13 -21 -63 3 -30
-23 -67 -44 -67 -7 0 -15 -7 -19 -15 -3 -8 -9 -15 -13 -14 -23 4 -35 -4 -49
-35 l-17 -34 -51 27 c-28 14 -52 29 -54 34 -2 4 -10 7 -18 7 -15 0 -17 19 -5
60 5 18 0 37 -16 67 -23 43 -22 63 4 95 12 13 13 26 4 65 -9 43 -8 49 9 62 11
7 20 23 20 35 0 17 2 18 10 6 7 -11 8 -6 4 16 -6 30 7 45 40 48 5 1 11 12 13
25 3 19 1 22 -11 12 -12 -10 -15 2 -22 71 -5 60 -9 76 -15 58 -6 -22 -7 -21
-8 10 -1 20 -5 40 -10 45 -5 6 -17 45 -26 88 -13 60 -14 81 -5 92 15 18 -12
77 -43 94 -24 13 -47 54 -47 84 0 10 -4 15 -10 12 -5 -3 -10 -2 -10 2 0 5 -6
17 -13 26 -11 17 -15 17 -45 2 -17 -9 -32 -22 -32 -30 0 -8 -7 -11 -20 -8 -11
3 -20 1 -20 -4 0 -5 -9 -9 -20 -10 -11 -1 -20 2 -20 8 0 5 -9 9 -19 9 -11 0
-22 6 -24 13 -4 9 -8 8 -16 -3 -9 -13 -11 -13 -11 2 0 31 -21 31 -54 -1 -32
-31 -56 -40 -56 -21 0 6 -7 10 -15 10 -8 0 -15 -8 -15 -19 0 -10 -7 -24 -15
-31 -8 -7 -15 -9 -15 -4 0 4 -6 1 -12 -8 -16 -20 -63 -19 -63 2 0 9 -10 15
-25 15 -22 0 -26 6 -30 40 -4 24 -1 51 7 68 10 19 11 33 3 46 -15 28 -12 67 5
81 9 7 15 25 14 39 -4 58 2 80 37 117 33 34 42 38 88 40 66 2 68 2 61 13 -3 5
-1 12 5 16 14 8 13 62 -1 67 -8 3 -6 18 5 51 9 26 16 54 16 62 0 8 5 15 11 15
5 0 15 14 21 32 9 27 12 29 18 14 4 -11 18 -20 36 -22 18 -2 24 0 16 5 -11 6
-10 12 4 25 9 10 20 13 23 8 3 -5 23 -8 43 -7 21 2 40 0 42 -3 10 -16 -7 -61
-25 -65 -14 -4 -19 -14 -19 -36 0 -17 5 -31 11 -31 7 0 8 -18 4 -55 -5 -38 -4
-55 4 -55 6 0 11 -9 11 -20 0 -12 10 -24 24 -29 13 -5 26 -19 29 -31 3 -12 10
-19 15 -16 6 3 8 -2 5 -14 -3 -11 0 -20 6 -20 6 0 11 -7 11 -15 0 -16 12 -20
24 -7 4 4 24 12 43 17 37 10 41 15 69 78 9 20 22 37 30 37 7 0 24 10 37 23 22
20 24 28 19 77 -2 30 -9 58 -15 62 -13 8 -13 55 1 89 10 24 14 26 61 23 27 -2
52 0 56 6 3 5 11 7 18 4 7 -2 19 6 27 20 15 29 38 40 54 27 7 -6 25 -3 51 9
51 25 59 24 117 -2z m-1328 -68 c19 -28 25 -47 20 -65 -3 -14 -9 -25 -13 -25
-4 0 -24 -29 -45 -65 -21 -35 -43 -63 -49 -62 -20 4 -17 -76 4 -94 26 -22 24
-39 -5 -39 -21 0 -25 6 -32 43 -5 23 -7 52 -6 65 2 12 -1 22 -7 22 -14 0 -22
-29 -15 -58 5 -25 4 -25 -9 -9 -8 9 -19 17 -24 17 -6 0 -18 18 -28 40 -10 22
-25 40 -33 40 -11 0 -13 8 -9 37 4 21 11 39 17 41 5 2 10 21 10 43 0 28 4 39
15 39 8 0 15 6 15 13 0 17 93 50 119 42 10 -3 22 -1 26 5 11 18 22 11 49 -30z
m-304 -40 c0 -5 -7 -10 -15 -10 -8 0 -15 5 -15 10 0 6 7 10 15 10 8 0 15 -4
15 -10z m-118 -580 c18 0 20 -5 15 -35 -3 -19 -1 -37 4 -40 5 -4 9 7 9 24 0
40 37 63 57 35 17 -23 17 -34 -2 -34 -8 0 -16 -8 -16 -17 -1 -17 -2 -17 -6 0
-8 31 -23 18 -23 -21 0 -43 -25 -55 -34 -16 -4 16 -11 21 -26 17 -16 -4 -20 0
-22 18 -2 34 2 72 9 89 5 12 7 12 10 -2 3 -10 14 -18 25 -18z m1628 -5 c0 -8
-7 -15 -15 -15 -8 0 -15 7 -15 15 0 8 7 15 15 15 8 0 15 -7 15 -15z m-1865
-305 c3 -5 12 -7 20 -3 8 3 15 1 15 -5 0 -5 -11 -13 -25 -16 -17 -4 -25 -13
-25 -29 0 -17 -6 -22 -25 -22 -27 0 -33 10 -12 19 10 5 10 7 0 12 -19 8 -17
48 2 41 8 -4 17 -2 20 3 4 6 10 10 15 10 5 0 11 -4 15 -10z m957 -14 c11 -15
-11 -46 -27 -40 -22 9 -20 52 3 50 9 0 20 -5 24 -10z m4305 -388 c-3 -8 -6 -5
-6 6 -1 11 2 17 5 13 3 -3 4 -12 1 -19z m-47 1 c0 -5 4 -8 9 -5 5 3 12 -1 15
-10 5 -14 10 -14 40 4 29 17 35 18 40 6 3 -9 10 -13 15 -10 5 4 11 2 13 -3 1
-4 13 -12 26 -15 16 -6 22 -3 22 8 0 24 37 6 60 -29 11 -17 20 -24 20 -17 0
18 41 5 58 -19 7 -11 19 -19 27 -19 7 0 15 -10 17 -22 2 -16 11 -24 28 -27 14
-1 28 -8 32 -14 7 -12 28 -16 107 -21 43 -2 58 -8 69 -24 12 -18 24 -22 63
-22 41 0 51 -4 65 -25 21 -33 67 -55 88 -43 11 6 21 5 30 -5 8 -8 42 -20 75
-27 34 -7 61 -17 61 -21 0 -5 5 -9 10 -9 6 0 19 -9 30 -20 12 -12 24 -18 29
-16 5 3 16 -3 26 -14 9 -10 22 -17 28 -14 7 2 18 -9 25 -25 7 -17 23 -32 37
-35 14 -4 25 -11 25 -17 0 -6 5 -7 10 -4 6 3 10 2 10 -4 0 -6 6 -8 13 -6 6 2
31 6 54 8 60 6 94 -30 84 -87 -1 -5 4 -25 12 -45 25 -62 31 -135 13 -150 -9
-8 -16 -24 -16 -37 0 -13 -4 -24 -10 -24 -5 0 -7 -7 -3 -16 5 -15 -23 -83 -40
-95 -5 -4 -7 -15 -5 -25 3 -11 -4 -36 -15 -58 -13 -27 -15 -41 -8 -46 7 -4 10
-35 9 -82 -2 -42 -6 -74 -10 -71 -14 8 -9 -6 9 -27 10 -11 25 -20 34 -20 19 0
35 -30 20 -39 -6 -4 -6 -12 -1 -21 6 -8 10 -25 10 -37 0 -13 4 -23 10 -23 5 0
13 -18 16 -40 5 -31 11 -40 26 -40 11 0 22 -9 25 -20 3 -11 9 -20 14 -20 6 0
12 -7 16 -16 3 -9 35 -46 70 -81 34 -35 63 -71 63 -79 0 -8 6 -25 14 -37 21
-32 28 -162 16 -295 -6 -65 -12 -145 -14 -179 -2 -34 -7 -66 -10 -71 -3 -6 -8
-61 -12 -124 -9 -183 -22 -310 -33 -321 -16 -16 -13 -53 4 -67 12 -10 17 -5
31 30 10 26 20 37 24 30 4 -7 13 11 20 41 15 66 46 137 70 164 24 26 47 88 55
148 4 28 16 58 30 75 l23 27 11 -27 c16 -43 52 -46 99 -9 34 28 40 40 50 95 8
42 9 73 3 92 -9 27 -21 91 -23 124 0 8 -7 23 -16 32 -15 18 -10 88 7 88 5 0
13 12 19 28 12 33 65 88 92 95 22 6 28 1 63 -52 25 -40 77 -53 77 -20 0 23 10
49 20 49 4 0 9 -21 10 -47 3 -48 3 -63 -2 -212 -3 -68 0 -83 18 -103 11 -13
36 -48 54 -78 19 -30 37 -57 40 -60 25 -23 59 -110 115 -290 9 -30 22 -68 30
-85 7 -16 18 -55 25 -85 7 -30 22 -77 35 -105 35 -76 83 -224 90 -275 8 -62
27 -134 36 -140 10 -7 39 -154 49 -255 5 -44 12 -100 16 -124 5 -37 3 -46 -12
-55 -11 -6 -23 -11 -29 -11 -16 -1 -35 22 -35 43 0 11 -7 25 -15 32 -8 7 -15
21 -15 31 0 10 -16 45 -35 78 -19 32 -35 65 -35 73 0 7 -6 22 -13 33 -7 11
-19 36 -27 55 -17 44 -75 136 -111 175 -38 42 -65 94 -74 143 -4 24 -18 53
-35 71 -16 17 -32 43 -36 58 -3 15 -12 42 -19 58 -8 17 -20 45 -27 63 -8 19
-20 32 -31 32 -10 0 -21 8 -24 18 -4 9 -17 28 -30 42 -13 14 -23 28 -23 33 0
4 -4 6 -9 2 -5 -3 -17 2 -26 11 -31 31 -69 27 -104 -11 -44 -49 -83 -120 -105
-190 -28 -91 -72 -129 -163 -137 -23 -2 -37 4 -52 21 -11 12 -24 20 -29 17 -5
-3 -9 9 -9 25 0 45 -49 70 -60 30 -3 -10 -15 -21 -28 -23 -18 -4 -21 -1 -17
14 2 10 -1 18 -7 18 -6 0 -11 -11 -11 -25 0 -18 -4 -23 -15 -19 -8 4 -15 1
-15 -5 0 -6 -7 -11 -15 -11 -9 0 -15 -9 -15 -25 0 -14 -4 -25 -10 -25 -5 0
-10 -7 -10 -15 0 -8 -6 -15 -12 -16 -10 0 -10 -2 0 -6 16 -6 16 -43 -1 -43 -6
0 -18 -14 -25 -30 -8 -17 -20 -30 -28 -30 -11 0 -13 -7 -8 -27 13 -54 22 -59
29 -18 10 63 12 63 20 6 4 -29 3 -56 -1 -60 -5 -3 -10 -17 -11 -31 -6 -67 -16
-101 -28 -96 -8 3 -15 -5 -18 -19 -2 -14 0 -26 5 -27 18 -6 -4 -40 -23 -35
-10 3 -20 0 -22 -7 -3 -6 -9 0 -15 14 l-10 25 -11 -28 c-6 -16 -11 -35 -11
-43 0 -13 -3 -13 -22 0 -35 24 -40 19 -11 -11 14 -16 31 -27 38 -25 8 1 12 -8
11 -30 -1 -22 -7 -33 -16 -33 -9 0 -16 -11 -18 -27 -2 -18 -9 -28 -20 -28 -12
0 -13 -3 -5 -11 6 -6 9 -18 6 -26 -4 -11 -8 -10 -18 4 -9 13 -10 35 -4 77 5
37 4 67 -2 79 -17 31 -24 10 -20 -64 2 -45 -2 -75 -10 -85 -9 -12 -9 -19 1
-38 10 -19 10 -31 -1 -62 -15 -41 -69 -107 -69 -84 0 9 -7 6 -19 -7 -11 -12
-26 -23 -33 -25 -11 -4 -10 -8 1 -21 9 -11 10 -17 2 -17 -6 0 -11 -9 -11 -20
0 -25 -20 -27 -21 -2 -1 9 -6 0 -11 -21 -11 -42 -24 -47 -38 -14 -9 22 -9 21
-9 -4 -1 -15 -11 -38 -22 -53 -16 -20 -20 -35 -15 -59 5 -24 3 -28 -5 -17 -7
11 -12 12 -15 3 -3 -7 -11 -11 -17 -9 -7 1 -9 1 -4 -1 4 -3 7 -14 7 -25 0 -17
-3 -18 -15 -8 -13 11 -14 8 -10 -21 4 -27 3 -30 -4 -14 -5 11 -10 36 -11 55
-1 19 -4 29 -7 23 -2 -7 -16 -13 -29 -13 -17 0 -24 -6 -24 -20 0 -11 5 -20 10
-20 6 0 10 7 10 15 0 8 7 15 15 15 10 0 15 -11 15 -35 0 -19 -5 -35 -10 -35
-6 0 -8 -11 -4 -26 5 -20 4 -25 -5 -19 -7 4 -11 18 -8 31 5 28 -2 39 -30 48
-19 6 -23 4 -24 -16 0 -13 -3 -17 -6 -10 -10 26 -21 10 -10 -17 6 -17 15 -28
19 -25 4 3 8 -6 8 -20 0 -14 -5 -26 -11 -26 -6 0 -8 7 -5 17 4 10 4 14 0 10
-4 -4 -12 0 -19 9 -10 14 -16 14 -53 2 -23 -8 -40 -17 -37 -20 3 -3 -3 -8 -15
-11 -11 -3 -23 -1 -26 4 -3 5 3 9 13 10 12 1 10 3 -7 8 -14 4 -26 15 -28 25
-3 11 0 16 7 12 6 -4 11 -3 11 3 0 5 15 12 33 14 29 4 30 5 10 12 -13 4 -23
16 -23 26 0 11 -4 19 -10 19 -5 0 -10 -7 -10 -16 0 -8 -4 -13 -9 -9 -5 3 -16
-2 -24 -10 -9 -8 -33 -15 -54 -15 -27 0 -34 -3 -23 -10 8 -5 11 -12 7 -17 -4
-4 -17 -2 -27 5 -30 18 -38 15 -32 -14 3 -19 1 -25 -7 -20 -7 5 -11 -1 -11
-15 0 -21 -2 -20 -25 11 -20 27 -26 30 -31 17 -11 -29 -24 -8 -24 38 0 43 -13
67 -24 43 -3 -7 -3 0 1 15 4 23 0 34 -20 53 -31 29 -37 30 -38 7 0 -11 -3 -13
-6 -5 -2 6 -13 12 -23 12 -10 0 -21 -6 -23 -12 -3 -8 -6 -7 -6 4 -1 9 -10 20
-21 23 -11 4 -18 10 -15 15 6 9 -84 40 -116 40 -10 0 -21 4 -24 10 -3 6 -19
10 -35 10 -16 0 -32 5 -35 10 -8 13 -45 13 -45 0 0 -6 -11 -15 -25 -20 -14 -5
-25 -14 -25 -20 0 -5 -11 -10 -25 -10 -14 0 -25 5 -25 10 0 6 5 10 10 10 6 0
10 5 10 10 0 6 -7 10 -15 10 -8 0 -15 5 -15 10 0 6 -7 10 -15 10 -8 0 -12 6
-9 14 4 11 -2 14 -25 14 -31 -1 -42 -20 -19 -34 7 -5 8 -3 3 6 -5 8 -3 11 6 8
7 -2 17 -19 21 -36 5 -18 15 -32 23 -32 8 0 15 -5 15 -11 0 -6 -6 -9 -14 -6
-10 4 -12 0 -9 -14 3 -12 11 -18 19 -15 8 3 18 -2 23 -12 10 -20 9 -62 -1 -62
-5 0 -19 0 -33 0 -14 0 -33 9 -42 20 -12 13 -30 20 -55 20 -47 0 -88 16 -106
41 -7 10 -17 17 -22 14 -5 -3 -11 -1 -15 5 -3 5 -24 8 -46 6 -22 -2 -42 0 -45
5 -2 4 -11 6 -19 2 -8 -3 -15 0 -15 7 0 6 -5 8 -10 5 -6 -4 -8 -11 -5 -16 9
-13 -9 -11 -23 3 -7 7 -12 8 -12 2 0 -14 -33 -14 -42 0 -5 7 -8 5 -8 -5 0 -18
-20 -29 -51 -29 -10 0 -19 -4 -19 -9 0 -16 -52 -5 -65 12 -7 9 -15 14 -18 10
-4 -3 -7 -1 -7 6 0 8 -8 11 -20 8 -14 -4 -25 1 -33 14 -6 10 -16 19 -21 19
-14 0 -56 50 -56 66 0 9 9 18 20 21 11 3 20 13 20 22 0 14 2 14 10 1 7 -12 12
-12 21 -3 17 17 59 -29 59 -65 0 -19 3 -23 9 -14 6 10 11 2 16 -24 9 -53 14
-58 33 -37 10 10 26 20 37 21 11 2 22 8 23 13 2 5 11 9 21 9 22 0 56 32 76 70
17 33 32 37 61 15 10 -8 27 -15 37 -15 9 0 17 -4 17 -10 0 -5 7 -10 15 -10 8
0 15 9 15 21 0 11 4 17 10 14 13 -8 51 30 68 68 6 15 16 27 21 27 5 0 9 16 9
35 0 19 -4 35 -9 35 -5 0 -9 -4 -9 -9 0 -5 -11 -4 -25 2 -14 7 -25 16 -25 20
0 5 -10 6 -22 3 -13 -3 -17 -3 -10 0 18 8 15 35 -3 28 -16 -7 -19 6 -9 43 7
25 52 43 101 39 21 -2 40 4 52 15 11 10 31 20 45 23 36 6 46 14 46 36 0 10 5
22 10 25 6 4 8 11 4 16 -3 5 -9 7 -14 4 -5 -3 -25 4 -45 16 -20 12 -39 19 -42
15 -4 -4 -12 6 -19 21 -8 19 -13 22 -13 11 -1 -23 -12 -23 -39 2 -11 11 -24
16 -27 10 -3 -5 -12 -7 -20 -4 -8 4 -18 -1 -21 -10 -3 -9 -12 -16 -20 -16 -7
0 -19 -8 -26 -18 -7 -10 -20 -21 -28 -25 -8 -4 -22 -11 -30 -15 -53 -30 -61
-32 -81 -21 -12 6 -29 9 -38 6 -9 -2 -22 1 -28 8 -6 7 -29 15 -51 19 -35 5
-40 9 -35 28 4 20 3 21 -7 6 -18 -29 -43 -23 -37 9 7 37 -8 74 -28 67 -10 -4
-15 0 -15 14 0 31 -11 52 -26 52 -8 0 -14 8 -15 18 -1 9 -2 26 -3 36 0 11 -7
21 -15 24 -8 3 -11 0 -7 -6 3 -6 2 -13 -3 -16 -11 -7 -23 22 -14 36 3 7 1 8
-5 4 -35 -21 -86 30 -60 61 8 10 6 13 -6 13 -17 0 -19 11 -9 48 4 16 11 22 23
19 14 -4 17 3 15 42 -2 55 6 76 16 41 l7 -25 1 27 c1 15 -3 30 -9 33 -5 3 -10
12 -10 18 0 7 4 6 10 -3 5 -8 10 -11 10 -6 0 5 8 2 17 -5 15 -13 16 -11 10 21
-6 31 -5 33 7 17 18 -23 29 -7 20 28 -5 22 -3 25 20 25 14 0 26 5 26 11 0 6
-6 9 -14 6 -8 -3 -17 1 -20 9 -3 9 -1 12 4 9 6 -3 10 5 10 19 0 14 5 26 10 26
6 0 10 -7 10 -15 0 -8 9 -15 20 -15 14 0 18 5 13 16 -4 11 1 22 12 30 14 10
15 14 4 14 -10 1 -9 4 5 15 17 13 14 41 -4 30 -4 -3 -6 3 -3 14 3 12 11 17 22
14 16 -4 18 1 16 35 -1 22 -5 44 -9 51 -4 6 -3 11 3 11 5 0 13 -4 16 -10 11
-18 23 -11 18 10 -3 11 -9 20 -14 20 -5 0 -9 12 -8 28 0 15 3 21 6 15 12 -31
25 -9 22 40 -3 59 8 117 22 117 6 0 8 4 5 9 -7 10 16 71 26 71 4 0 8 -9 8 -20
0 -11 5 -20 10 -20 6 0 10 12 10 28 0 19 3 23 9 13 12 -19 20 0 10 24 -4 11
-8 14 -8 6 -1 -8 -4 -11 -7 -8 -8 8 16 67 27 67 5 0 6 -13 3 -30 -4 -20 -2
-30 5 -30 8 0 11 19 9 60 -3 60 5 73 30 48 9 -9 12 -9 12 3 0 8 -5 20 -12 27
-9 9 -8 16 5 30 20 22 21 36 5 61 -13 21 -4 56 12 46 6 -4 7 -11 4 -17 -5 -8
-1 -9 9 -5 10 4 24 10 34 14 10 4 14 3 9 -5 -3 -6 -2 -13 4 -17 5 -3 10 3 10
14 0 11 5 23 12 27 8 5 9 2 5 -10 -5 -14 -3 -17 8 -12 8 3 15 0 16 -7 0 -9 2
-9 6 1 8 21 33 13 33 -10 0 -19 2 -20 10 -8 8 13 10 12 10 -2 0 -11 -8 -18
-20 -18 -17 0 -19 -2 -8 -14 7 -8 15 -10 16 -5 3 6 9 5 17 -1 9 -8 11 -20 5
-40 -8 -27 -7 -29 10 -20 14 8 19 5 24 -13 3 -12 1 -26 -4 -31 -19 -19 -10
-47 25 -79 19 -17 35 -38 35 -45 0 -24 43 -51 62 -41 24 13 58 -6 58 -31 0
-11 4 -20 9 -20 5 0 8 6 7 13 -2 24 19 19 32 -7 7 -14 18 -26 25 -25 9 0 9 2
-1 6 -6 2 -10 9 -6 14 9 16 24 10 24 -11 0 -10 9 -24 21 -30 11 -7 18 -14 16
-17 -3 -2 16 -26 41 -51 26 -26 52 -56 58 -67 5 -11 18 -19 27 -17 9 2 17 -2
17 -8 0 -16 26 -40 44 -40 8 0 21 -9 29 -21 8 -11 24 -21 36 -22 11 -1 23 -7
26 -15 3 -7 9 -10 15 -7 5 3 10 -1 10 -9 0 -9 9 -16 20 -16 11 0 20 -4 20 -10
0 -5 19 -8 45 -5 39 3 45 1 45 -15 0 -26 15 -33 33 -15 9 8 23 15 32 15 12 0
15 6 10 23 -4 14 -3 17 2 9 7 -9 14 -7 32 9 24 22 25 49 2 57 -10 3 -11 -2 -6
-19 5 -19 4 -21 -4 -9 -12 17 -5 51 13 62 6 4 -4 8 -22 8 -27 0 -31 2 -20 14
7 7 18 12 24 9 7 -2 18 10 25 26 8 18 19 29 26 26 8 -3 13 5 13 21 0 14 4 23
9 20 5 -3 14 1 21 9 7 8 16 12 21 9 5 -3 18 4 29 14 16 14 19 26 14 46 -4 17
-2 26 5 26 6 0 16 11 21 25 11 30 35 34 27 5 -8 -32 9 -23 26 13 9 18 29 40
44 47 15 8 40 27 54 43 20 20 36 28 65 28 52 1 84 16 116 54 25 30 26 33 12
59 -18 36 -18 47 1 22 8 -11 15 -14 15 -8 0 7 7 12 16 12 9 0 27 9 41 20 14
11 32 20 39 20 7 0 11 6 8 13 -7 18 44 95 68 103 11 3 18 14 17 27 -1 17 -2
18 -6 5 -7 -27 -23 -21 -23 7 0 16 -5 25 -12 23 -7 -1 -25 10 -40 24 -14 15
-39 30 -55 34 -15 4 -30 10 -33 14 -14 17 -82 51 -95 46 -8 -3 -17 -1 -21 5
-5 9 -49 30 -64 31 -3 0 -22 15 -43 34 -40 37 -52 38 -272 36 -44 -1 -90 4
-103 10 -18 9 -25 9 -30 1 -8 -12 -36 -12 -48 0 -12 12 -60 8 -90 -8 -34 -18
-66 -19 -81 -4 -8 8 -17 8 -33 -1 -12 -6 -28 -9 -36 -6 -8 3 -26 -1 -40 -10
-21 -14 -24 -14 -19 -1 8 20 -40 67 -70 67 -13 0 -35 -4 -49 -10 -21 -8 -26
-6 -26 6 0 8 5 12 10 9 6 -4 10 5 10 19 0 28 -1 29 -25 20 -11 -4 -13 -9 -6
-13 11 -7 -7 -61 -21 -61 -3 0 -18 14 -33 32 -21 25 -25 38 -20 64 3 18 1 35
-5 39 -6 3 -10 -3 -10 -16 0 -18 -2 -19 -15 -9 -9 7 -13 21 -10 31 6 17 4 17
-22 4 -27 -14 -28 -14 -41 20 -8 19 -18 32 -23 29 -5 -3 -9 2 -9 10 0 19 46
22 53 4 3 -10 9 -10 25 -1 18 11 21 9 27 -20 8 -30 8 -30 12 -7 6 41 26 100
33 100 4 0 11 -10 15 -22 6 -21 8 -21 12 -4 3 10 1 21 -4 25 -5 3 -14 35 -21
71 -16 90 -18 113 -8 128 11 19 -1 45 -19 38 -8 -3 -19 3 -25 12 -8 15 -11 15
-20 2 -9 -13 -10 -13 -10 0 -1 8 -6 4 -12 -10 -8 -18 -12 -21 -16 -10 -2 8
-13 27 -23 42 -22 30 -25 45 -6 30 7 -6 23 -8 36 -5 20 5 22 10 17 39 -5 26
-3 35 12 43 11 6 23 26 27 47 5 27 9 34 18 25 16 -16 34 -14 57 7 11 9 26 17
33 17 7 0 12 6 11 13 -1 6 -2 21 -2 33 -1 13 -6 18 -14 13 -19 -12 -128 -11
-119 1 20 26 19 41 -3 41 -11 -1 -24 -5 -28 -10 -12 -18 -38 15 -32 40 3 13 3
36 0 50 l-7 26 -18 -21 c-23 -26 -41 -27 -41 -1 0 11 4 20 9 20 5 0 9 15 8 34
-1 31 -4 34 -26 31 -15 -2 -32 -4 -38 -4 -7 -1 -13 -10 -13 -20 0 -11 -4 -23
-10 -26 -6 -4 -10 5 -10 19 0 14 -5 26 -11 26 -7 0 -8 -11 -4 -29 3 -17 2 -32
-5 -36 -5 -3 -8 -11 -5 -16 4 -5 2 -9 -3 -9 -14 0 -42 46 -42 70 0 15 -7 20
-25 20 -16 0 -25 -6 -25 -15 0 -18 -36 -20 -44 -2 -3 6 -4 -4 -1 -23 3 -19 2
-29 -1 -22 -3 6 -10 9 -16 6 -6 -4 -8 1 -4 13 9 29 -18 50 -41 32 -15 -12 -16
-12 -10 3 4 11 2 17 -5 15 -7 -1 -14 7 -16 18 -5 26 -31 55 -49 55 -19 0 -16
28 7 52 10 12 17 25 14 30 -3 4 0 8 6 8 6 0 13 -7 16 -15 4 -8 10 -12 15 -9 5
3 9 -2 9 -10 0 -9 -7 -16 -15 -16 -18 0 -20 -20 -2 -21 6 -1 24 -3 40 -5 33
-3 35 8 5 29 -19 12 -21 18 -10 28 6 7 12 22 12 32 0 16 3 17 15 7 16 -13 18
-11 30 44 5 26 5 27 -10 12 -18 -17 -30 -22 -21 -7 3 4 -1 17 -9 27 -10 13
-14 14 -15 5 0 -7 -6 -11 -14 -8 -10 4 -12 0 -9 -14 5 -17 2 -19 -20 -14 -14
4 -34 2 -44 -3 -12 -7 -25 -7 -34 -1 -11 7 -11 9 4 9 10 0 17 8 17 19 0 22 14
34 55 49 17 6 24 11 18 11 -7 1 -13 8 -13 17 0 12 6 15 22 11 13 -4 31 1 45
13 14 11 31 16 41 13 15 -6 15 -5 3 10 -11 15 -11 17 2 17 8 0 22 -16 31 -35
10 -20 21 -33 27 -30 5 4 9 0 10 -7 0 -9 2 -8 6 2 3 8 14 26 24 39 25 31 24
44 -2 30 -19 -10 -20 -9 -14 11 9 28 -7 45 -47 48 -32 3 -66 22 -38 22 7 0 10
3 6 8 -4 4 -13 7 -19 7 -7 0 -13 8 -15 18 -5 23 44 24 69 1 16 -15 20 -14 48
2 28 17 31 17 49 1 30 -27 52 -21 60 16 l7 32 5 -40 c3 -22 1 -43 -3 -46 -5
-4 -4 -17 3 -29 11 -20 14 -21 21 -8 5 9 20 19 34 22 14 4 25 13 25 20 0 18
39 28 78 20 21 -4 31 -2 35 10 10 25 27 19 27 -9 0 -14 4 -25 9 -25 12 0 25
56 16 70 -3 5 -1 10 4 10 6 0 11 7 11 16 0 9 9 18 20 21 11 3 20 9 20 14 0 12
37 11 45 -1 4 -6 12 -4 21 5 18 17 34 20 34 4z m-160 -29 c0 -5 -9 -10 -20
-10 -11 0 -20 5 -20 10 0 6 9 10 20 10 11 0 20 -4 20 -10z m-752 -35 c-9 -9
-30 14 -23 25 6 9 10 8 17 -4 6 -10 8 -19 6 -21z m582 2 c0 -13 -3 -26 -6 -30
-10 -9 -34 4 -34 19 0 8 -6 14 -12 14 -20 0 14 20 35 20 11 0 17 -8 17 -23z
m-4580 -6 c0 -6 -4 -13 -10 -16 -5 -3 -10 1 -10 9 0 9 5 16 10 16 6 0 10 -4
10 -9z m4217 -59 c10 -7 10 -14 0 -35 -16 -35 -24 -34 -29 3 -6 39 3 49 29 32z
m-4079 -33 c18 -28 1 -46 -22 -24 -9 9 -16 23 -16 31 0 21 23 17 38 -7z m4012
11 c0 -5 -4 -10 -9 -10 -6 0 -13 5 -16 10 -3 6 1 10 9 10 9 0 16 -4 16 -10z
m-4150 -15 c10 -12 10 -16 -1 -20 -21 -7 -55 1 -49 11 3 5 8 8 13 7 4 -2 7 2
7 7 0 15 16 12 30 -5z m3704 -9 c26 -23 34 -46 17 -46 -6 0 -13 5 -16 10 -4 6
-11 8 -16 5 -5 -4 -9 -1 -9 6 0 8 -4 8 -15 -1 -12 -10 -15 -9 -15 7 0 16 17
43 26 43 2 0 14 -11 28 -24z m-3799 -16 c-5 -8 -11 -8 -17 -2 -6 6 -7 16 -3
22 5 8 11 8 17 2 6 -6 7 -16 3 -22z m1905 10 c0 -5 -7 -10 -15 -10 -8 0 -15 5
-15 10 0 6 7 10 15 10 8 0 15 -4 15 -10z m-1020 -16 c0 -8 -5 -12 -10 -9 -6 4
-8 11 -5 16 9 14 15 11 15 -7z m345 7 c3 -5 1 -12 -5 -16 -5 -3 -10 1 -10 9 0
18 6 21 15 7z m2878 -31 c14 -11 32 -20 40 -20 8 0 17 -6 20 -14 5 -12 -4 -14
-46 -11 -93 6 -113 18 -85 49 18 21 41 20 71 -4z m357 -32 c0 -16 -3 -19 -11
-11 -6 6 -8 16 -5 22 11 17 16 13 16 -11z m-525 -48 c10 0 16 -3 12 -6 -12
-13 -57 6 -57 24 1 16 1 16 14 0 7 -10 21 -18 31 -18z m-3936 -98 c1 -7 -3
-10 -9 -7 -5 3 -10 18 -9 33 0 24 1 25 9 7 5 -11 9 -26 9 -33z m76 28 c3 -5 1
-10 -4 -10 -6 0 -11 5 -11 10 0 6 2 10 4 10 3 0 8 -4 11 -10z m4205 -35 c0 -8
-9 -15 -20 -15 -11 0 -20 7 -20 15 0 8 9 15 20 15 11 0 20 -7 20 -15z m-4253
-47 c-3 -7 -5 -2 -5 12 0 14 2 19 5 13 2 -7 2 -19 0 -25z m4009 -65 c-11 -11
-19 6 -11 24 8 17 8 17 12 0 3 -10 2 -21 -1 -24z m514 -193 c0 -5 -2 -10 -4
-10 -3 0 -8 5 -11 10 -3 6 -1 10 4 10 6 0 11 -4 11 -10z m-188 -45 c4 -18 1
-25 -10 -25 -8 0 -12 3 -9 6 3 4 2 14 -3 24 -9 18 -3 33 10 25 4 -3 10 -16 12
-30z m-298 -160 c3 -8 1 -15 -4 -15 -6 0 -10 7 -10 15 0 8 2 15 4 15 2 0 6 -7
10 -15z m-28 -44 c14 -22 23 -44 20 -49 -3 -6 5 -5 18 1 23 11 24 12 5 19 -23
9 -24 15 -4 34 13 14 16 14 21 0 3 -9 15 -16 25 -16 14 0 19 -7 19 -25 0 -28
9 -32 29 -12 11 10 12 7 6 -13 -5 -19 -4 -21 4 -10 9 13 12 12 26 -5 16 -19
16 -19 11 10 -3 17 -3 24 0 17 3 -6 9 -10 14 -7 4 3 6 -5 3 -16 -5 -19 -3 -21
20 -17 18 4 27 1 27 -8 0 -7 5 -14 11 -16 9 -3 16 -25 18 -57 1 -7 7 -11 15
-8 9 4 19 -9 31 -38 9 -25 20 -44 23 -44 17 2 51 -14 56 -27 3 -8 15 -14 26
-14 29 0 70 -41 70 -70 0 -14 -2 -40 -6 -57 -3 -18 -4 -33 -1 -33 14 0 37 13
37 22 0 5 -4 6 -10 3 -5 -3 -10 1 -10 10 0 11 5 15 15 11 8 -3 15 -2 15 2 1
18 18 32 33 26 21 -8 22 -24 2 -24 -8 0 -15 -7 -15 -15 0 -9 6 -12 15 -9 10 4
15 0 15 -10 0 -13 -4 -15 -19 -7 -15 9 -22 6 -36 -15 -11 -18 -23 -24 -36 -21
-15 4 -19 0 -19 -20 0 -27 -24 -58 -39 -49 -5 3 -11 -3 -14 -14 -3 -12 -14
-20 -26 -20 -12 0 -21 -6 -21 -14 0 -12 -10 -14 -42 -10 -31 3 -39 2 -28 -5
13 -9 12 -13 -7 -26 -13 -9 -20 -22 -17 -30 4 -8 1 -15 -4 -15 -6 0 -13 -10
-15 -22 -2 -13 -3 -8 -1 10 3 32 -12 44 -22 18 -9 -23 -30 -25 -42 -5 -7 11
-8 18 -3 17 5 -2 8 2 8 7 -1 6 -8 9 -15 7 -7 -2 -20 2 -28 9 -7 6 -25 8 -39 5
-22 -6 -25 -3 -25 18 0 41 -10 58 -26 45 -11 -9 -14 -8 -14 5 0 9 -5 16 -11
16 -14 0 -39 25 -39 39 0 6 6 11 14 11 8 0 16 7 20 15 3 8 1 15 -4 15 -6 0
-10 -5 -10 -12 0 -6 -3 -8 -7 -4 -5 4 -8 16 -8 27 0 10 -4 18 -10 18 -5 0 -9
-9 -7 -19 4 -24 -13 -27 -22 -4 -3 8 -11 12 -16 9 -8 -5 -7 -11 1 -21 9 -11 9
-18 1 -26 -9 -9 -12 -9 -12 0 0 7 -4 12 -10 12 -5 0 -10 -18 -10 -39 0 -26 -5
-41 -16 -45 -27 -10 -36 4 -19 31 10 14 12 22 6 19 -7 -5 -11 3 -11 23 0 16
-5 33 -10 36 -6 4 -8 11 -5 16 3 5 -1 6 -9 3 -11 -4 -16 0 -17 12 0 18 -1 17
-8 -1 -7 -16 -9 -13 -15 18 -7 37 -20 48 -29 25 -4 -8 -6 -7 -6 3 -1 20 24 34
67 38 6 0 12 5 12 10 0 5 -11 8 -25 6 -18 -1 -29 4 -37 19 -6 11 -17 25 -25
30 -11 6 -13 19 -8 51 3 26 2 46 -5 50 -5 3 -10 12 -10 18 0 7 5 5 10 -5 8
-13 15 -14 38 -6 22 9 32 22 42 57 7 25 15 40 18 33 3 -10 7 -10 18 -1 25 20
29 0 5 -22 -14 -13 -21 -29 -18 -40 4 -13 0 -19 -13 -19 -16 0 -30 -18 -30
-41 0 -11 41 -12 55 -1 6 4 11 23 11 42 1 19 6 36 13 38 6 2 11 10 11 19 0 17
22 13 28 -5 2 -7 -4 -12 -13 -12 -9 0 -15 -6 -12 -12 2 -7 10 -12 17 -10 7 1
18 -3 26 -9 12 -9 11 -4 -1 32 -15 43 -29 77 -46 110 -9 19 -3 29 18 29 7 0
13 -11 13 -26 0 -15 4 -23 11 -19 6 4 10 19 9 33 -4 64 1 66 36 13z m79 29 c3
-5 1 -10 -4 -10 -6 0 -11 5 -11 10 0 6 2 10 4 10 3 0 8 -4 11 -10z m615 0 c0
-5 -5 -10 -11 -10 -5 0 -7 5 -4 10 3 6 8 10 11 10 2 0 4 -4 4 -10z m-881 -17
c-7 -10 -15 -20 -16 -22 -2 -2 -3 5 -3 17 0 14 6 22 16 22 14 0 15 -3 3 -17z
m561 -33 c0 -42 -14 -54 -25 -21 -5 16 12 61 22 61 2 0 3 -18 3 -40z m-175 0
c3 -5 1 -10 -4 -10 -6 0 -11 5 -11 10 0 6 2 10 4 10 3 0 8 -4 11 -10z m85 -46
c0 -8 -5 -12 -10 -9 -6 4 -8 11 -5 16 9 14 15 11 15 -7z m120 -4 c0 -5 -4 -10
-10 -10 -5 0 -10 -9 -10 -20 0 -11 5 -20 10 -20 6 0 10 -7 10 -17 0 -14 -2
-14 -20 2 -23 20 -26 45 -8 63 15 15 28 16 28 2z m50 -5 c0 -8 -2 -15 -4 -15
-2 0 -6 7 -10 15 -3 8 -1 15 4 15 6 0 10 -7 10 -15z m-620 -15 c0 -5 -4 -10
-10 -10 -5 0 -10 5 -10 10 0 6 5 10 10 10 6 0 10 -4 10 -10z m705 -73 c5 -5 0
-5 -12 -2 -14 4 -23 2 -23 -4 0 -6 -4 -11 -10 -11 -5 0 -10 7 -10 15 0 8 5 15
11 15 7 0 8 12 4 33 l-6 32 18 -35 c9 -19 22 -39 28 -43z m-779 25 c-2 -1 -15
4 -31 12 -23 12 -24 15 -8 18 15 3 47 -21 39 -30z m34 -2 c0 -5 -2 -10 -4 -10
-3 0 -8 5 -11 10 -3 6 -1 10 4 10 6 0 11 -4 11 -10z m-53 -76 c-3 -3 -12 -4
-19 -1 -8 3 -5 6 6 6 11 1 17 -2 13 -5z m2543 -13 c0 -6 -4 -13 -10 -16 -5 -3
-10 1 -10 9 0 9 5 16 10 16 6 0 10 -4 10 -9z m-1700 -108 c0 -15 1 -15 13 2
20 26 30 3 13 -29 -12 -23 -15 -24 -26 -11 -7 8 -19 15 -26 15 -8 0 -14 9 -14
20 0 13 7 20 20 20 12 0 20 -7 20 -17z m-1340 -38 c0 -5 5 -2 10 7 8 13 16 15
42 8 17 -5 35 -7 40 -4 5 3 12 -3 15 -15 6 -23 23 -29 23 -8 1 6 8 0 16 -16
12 -23 13 -31 2 -46 -18 -25 -25 -25 -55 -6 -23 15 -25 15 -20 2 12 -32 -48
-23 -83 13 -8 8 -28 16 -45 17 -16 1 -40 3 -52 4 -24 2 -30 13 -13 24 5 3 7
12 4 20 -9 21 5 38 21 25 9 -7 16 -6 25 5 11 13 16 13 41 -2 16 -10 29 -22 29
-28z m1518 2 c12 4 10 -1 -7 -20 -30 -33 -35 -29 -25 15 5 20 9 26 11 16 3
-11 10 -15 21 -11z m-1648 -1 c0 -2 -7 -9 -15 -16 -12 -10 -15 -10 -15 4 0 9
7 16 15 16 8 0 15 -2 15 -4z m1579 -18 c0 -7 -4 -22 -9 -33 -7 -17 -9 -15 -9
13 -1 17 4 32 9 32 6 0 10 -6 9 -12z m-912 -60 c-3 -7 -5 -2 -5 12 0 14 2 19
5 13 2 -7 2 -19 0 -25z m80 -70 c-3 -7 -5 -2 -5 12 0 14 2 19 5 13 2 -7 2 -19
0 -25z m3371 -8 c16 -16 34 -47 40 -69 11 -35 10 -43 -11 -80 -13 -23 -27 -38
-30 -34 -4 3 -7 -2 -7 -12 0 -26 -13 -8 -29 40 -8 22 -22 52 -32 67 -27 38
-25 92 4 106 32 15 34 15 65 -18z m-3247 -17 c13 -16 12 -17 -3 -5 -9 8 -23
10 -29 6 -8 -4 -9 -3 -5 4 10 17 21 15 37 -5z m-161 -18 c0 -9 -49 -53 -54
-48 -5 6 35 51 47 52 4 1 7 -1 7 -4z m37 -27 c-3 -8 -6 -5 -6 6 -1 11 2 17 5
13 3 -3 4 -12 1 -19z m713 -42 c0 -17 -33 -31 -38 -17 -2 6 -10 11 -18 11 -8
0 -14 5 -14 10 0 6 16 10 35 10 23 0 35 -5 35 -14z m87 -28 c-3 -8 -6 -5 -6 6
-1 11 2 17 5 13 3 -3 4 -12 1 -19z m-490 -80 c-3 -7 -5 -2 -5 12 0 14 2 19 5
13 2 -7 2 -19 0 -25z m540 -10 c-3 -8 -6 -5 -6 6 -1 11 2 17 5 13 3 -3 4 -12
1 -19z m-1477 -249 c9 -8 20 -23 23 -33 4 -9 11 -14 17 -11 5 3 10 -1 10 -9 0
-9 -5 -16 -10 -16 -16 0 -90 81 -90 97 0 16 12 10 50 -28z m399 4 c-12 -15
-12 -16 3 -11 9 4 18 4 21 2 10 -10 -39 -51 -80 -67 -36 -14 -43 -15 -43 -3 0
8 7 22 16 30 8 9 13 16 9 16 -3 0 7 11 22 25 33 29 74 36 52 8z m789 -7 c-1
-14 -7 -22 -15 -19 -9 4 -9 9 0 24 15 25 17 24 15 -5z m-43 -16 c3 -5 2 -10
-4 -10 -5 0 -13 5 -16 10 -3 6 -2 10 4 10 5 0 13 -4 16 -10z m-3495 -50 c0 -5
-2 -10 -4 -10 -3 0 -8 5 -11 10 -3 6 -1 10 4 10 6 0 11 -4 11 -10z m1250 -59
c0 -62 -14 -56 -25 11 -4 21 -11 38 -16 38 -6 0 -8 4 -5 9 3 5 15 7 26 4 17
-5 20 -14 20 -62z m3886 32 c-10 -10 -19 5 -10 18 6 11 8 11 12 0 2 -7 1 -15
-2 -18z m-466 -3 c0 -5 8 -10 18 -10 29 0 63 -35 55 -55 -4 -12 -3 -16 5 -11
8 5 9 -1 2 -21 -17 -56 -20 -92 -7 -87 7 2 13 -3 13 -14 0 -13 -8 -19 -26 -20
-14 0 -40 -3 -57 -6 -18 -3 -45 -1 -59 4 -18 7 -30 7 -39 0 -6 -5 -14 -8 -17
-5 -2 3 -23 6 -46 7 -54 2 -58 24 -12 63 46 40 100 95 128 134 23 31 42 40 42
21z m-3453 -60 c-4 -36 -14 -49 -23 -27 -5 14 11 57 21 57 3 0 3 -14 2 -30z
m3033 -5 c0 6 9 -1 20 -15 32 -41 23 -79 -12 -47 -8 6 -23 17 -33 23 -19 11
-21 29 -9 64 4 11 9 9 19 -10 8 -14 15 -20 15 -15z m-2473 -72 c-3 -10 -5 -4
-5 12 0 17 2 24 5 18 2 -7 2 -21 0 -30z m53 -60 c0 -8 -5 -11 -12 -7 -7 5 -9
0 -6 -14 4 -15 0 -23 -13 -27 -25 -8 -25 -29 0 -22 12 3 22 -1 25 -9 6 -16 36
-19 36 -4 0 6 -4 10 -10 10 -5 0 -10 20 -10 45 0 54 21 61 45 15 18 -34 23
-36 40 -14 10 15 13 15 27 0 9 -9 21 -16 27 -16 6 0 11 -6 11 -14 0 -10 7 -12
22 -8 18 4 20 2 16 -16 -7 -24 10 -30 29 -11 15 15 43 -11 43 -38 0 -15 2 -15
10 -3 7 12 12 11 28 -8 11 -12 24 -22 31 -22 6 0 11 -4 11 -10 0 -15 78 -90
95 -90 21 0 19 -10 -7 -38 l-23 -24 23 -18 c15 -13 18 -20 10 -23 -9 -4 -10
-6 -1 -6 6 -1 15 4 18 9 11 17 45 11 45 -7 0 -15 -2 -16 -10 -3 -12 19 -35 -2
-27 -24 9 -23 24 -20 43 9 22 33 4 57 -40 53 -22 -2 -31 1 -31 12 0 11 10 15
33 13 37 -1 61 -25 62 -60 0 -27 17 -38 49 -34 22 3 23 1 17 -36 -7 -36 -7
-37 8 -18 14 17 17 18 26 5 9 -12 10 -11 5 6 -4 15 0 24 12 28 15 6 15 9 3 16
-26 16 -3 22 31 8 39 -16 83 -3 74 21 -4 9 0 11 11 7 8 -3 20 -6 25 -6 5 0 9
-7 9 -16 0 -11 -6 -14 -20 -9 -24 8 -26 -9 -5 -45 17 -29 20 -80 5 -80 -5 0
-10 7 -10 15 0 8 -5 15 -11 15 -5 0 -9 -8 -7 -17 1 -10 -1 -24 -5 -30 -5 -7
-4 -13 2 -13 5 0 13 5 16 10 5 8 12 7 22 -1 13 -12 13 -14 -2 -25 -9 -7 -14
-18 -10 -24 4 -7 -1 -14 -13 -17 -11 -3 -23 -12 -27 -21 -5 -14 -7 -14 -15 -2
-8 12 -10 11 -10 -7 0 -12 -4 -24 -10 -28 -6 -3 -5 -15 2 -30 8 -18 8 -31 0
-47 -10 -21 -10 -19 -5 10 4 25 2 32 -11 32 -11 0 -16 -9 -17 -32 0 -18 -3
-27 -6 -21 -6 15 -25 -1 -36 -29 -9 -25 -30 -23 -22 2 3 11 2 20 -4 20 -5 0
-12 -14 -16 -31 -5 -24 -10 -28 -19 -19 -8 10 -8 14 2 17 6 3 12 9 12 14 0 11
-51 1 -65 -14 -7 -7 -5 -8 6 -4 13 4 18 -1 21 -22 3 -20 0 -27 -13 -27 -10 0
-17 3 -17 6 2 19 -4 23 -13 10 -8 -11 -9 -6 -4 22 3 21 1 39 -5 43 -6 4 -10
-10 -10 -37 0 -24 -6 -50 -12 -56 -10 -10 -10 -15 2 -22 8 -5 11 -12 7 -17 -5
-4 -12 -1 -17 7 -7 12 -11 12 -27 -2 -13 -12 -23 -14 -36 -7 -17 10 -19 8 -21
-23 -1 -10 -5 -17 -11 -15 -13 3 -8 61 5 65 6 2 10 10 10 18 0 11 -7 13 -27 8
-16 -4 -33 -10 -38 -13 -6 -3 -2 2 8 11 17 16 17 19 3 24 -9 3 -16 13 -16 21
0 9 6 13 15 9 18 -7 20 15 3 33 -10 11 -10 14 0 18 15 6 16 33 1 33 -6 0 -9 7
-5 15 3 8 1 15 -4 15 -6 0 -10 8 -10 18 -1 14 -3 14 -19 -6 -18 -21 -58 -22
-45 -1 3 5 -5 13 -17 18 -18 6 -28 3 -42 -13 -10 -12 -16 -15 -12 -8 8 15 -17
42 -39 42 -9 0 -16 5 -16 10 0 14 37 13 42 -1 2 -6 13 -9 23 -6 19 5 19 5 -2
12 -13 4 -23 12 -23 17 0 6 -7 8 -15 5 -18 -7 -27 6 -19 27 5 13 9 14 21 4 13
-10 15 -9 11 7 -2 11 -10 19 -16 17 -7 -1 -12 2 -12 8 0 20 -18 9 -24 -15 -4
-14 -13 -25 -22 -25 -13 0 -12 5 6 27 13 17 17 29 10 33 -6 4 -8 14 -4 23 6
16 -10 23 -38 18 -16 -2 -7 18 10 22 9 2 -11 7 -46 12 -45 5 -62 11 -58 20 2
7 -4 15 -15 18 -11 3 -19 14 -19 26 0 12 -4 21 -10 21 -5 0 -10 5 -10 10 0 21
20 9 26 -15 3 -14 13 -25 21 -25 11 0 10 6 -6 25 -15 20 -19 37 -15 71 2 25 6
50 10 55 8 13 34 11 34 -3 0 -8 5 -5 11 4 7 13 4 25 -12 48 -13 16 -26 30 -31
30 -4 0 -8 6 -8 14 0 9 -9 14 -20 13 -25 -2 -26 -25 -2 -43 16 -13 16 -13 0
-14 -25 0 -23 -20 2 -20 11 0 20 7 20 16 0 8 5 12 10 9 16 -10 12 -23 -10 -30
-11 -3 -20 -13 -20 -22 0 -12 -3 -13 -14 -4 -7 6 -21 9 -30 5 -12 -4 -16 0
-16 15 0 12 6 21 15 21 22 0 18 27 -5 33 -25 6 -27 29 -2 25 12 -2 16 3 14 17
-5 29 -10 31 -27 9 -14 -19 -14 -19 -15 1 0 11 5 27 10 35 6 10 10 11 10 3 0
-14 28 -17 54 -7 9 3 16 13 16 20 0 8 7 17 16 21 11 4 13 13 9 33 -6 25 -4 28
14 23 12 -3 21 -12 21 -20z m-50 -13 c0 -11 -4 -20 -10 -20 -5 0 -10 9 -10 20
0 11 5 20 10 20 6 0 10 -9 10 -20z m190 10 c0 -5 -2 -10 -4 -10 -3 0 -8 5 -11
10 -3 6 -1 10 4 10 6 0 11 -4 11 -10z m2770 -40 c0 -5 -4 -10 -10 -10 -5 0
-10 5 -10 10 0 6 5 10 10 10 6 0 10 -4 10 -10z m-3750 -85 c0 -21 30 -31 41
-14 7 11 9 11 9 -3 0 -20 20 -25 21 -5 0 6 5 1 10 -13 10 -24 11 -24 24 -7 21
29 26 4 6 -27 -12 -17 -21 -24 -25 -17 -4 6 -12 11 -19 11 -6 0 -1 -7 11 -16
22 -15 32 -41 11 -29 -6 4 -13 -2 -16 -14 -7 -28 -43 -28 -43 -1 0 11 -7 20
-15 20 -19 0 -19 -14 0 -30 10 -8 13 -21 9 -34 -9 -27 -26 -38 -37 -23 -5 7
-6 3 -2 -10 5 -17 2 -23 -8 -23 -10 0 -13 7 -10 20 3 11 0 20 -6 20 -6 0 -11
9 -11 20 0 11 -5 20 -10 20 -17 0 -5 49 15 65 11 8 15 15 8 15 -8 0 -13 15
-13 39 0 22 5 42 13 44 23 10 37 7 37 -8z m-134 -72 c-10 -10 -19 5 -10 18 6
11 8 11 12 0 2 -7 1 -15 -2 -18z m41 5 c-3 -8 -6 -5 -6 6 -1 11 2 17 5 13 3
-3 4 -12 1 -19z m-161 -86 c-12 -11 -16 6 -9 39 l8 34 3 -33 c2 -19 1 -36 -2
-40z m2530 21 c-10 -10 -19 5 -10 18 6 11 8 11 12 0 2 -7 1 -15 -2 -18z
m-2446 -20 c-1 -24 -2 -26 -11 -10 -5 9 -7 22 -4 27 10 17 15 11 15 -17z
m-116 2 c3 -8 1 -15 -4 -15 -6 0 -10 7 -10 15 0 8 2 15 4 15 2 0 6 -7 10 -15z
m-230 -10 c-7 -16 -24 -21 -24 -6 0 8 7 13 27 20 1 1 0 -6 -3 -14z m136 -5 c0
-5 -2 -10 -4 -10 -3 0 -8 5 -11 10 -3 6 -1 10 4 10 6 0 11 -4 11 -10z m296 -2
c16 -25 14 -96 -3 -110 -14 -12 -15 -8 -10 37 4 28 4 44 1 37 -5 -10 -9 -10
-20 -2 -10 9 -11 16 -1 31 14 22 23 24 33 7z m141 -14 c-3 -3 -12 -4 -19 -1
-8 3 -5 6 6 6 11 1 17 -2 13 -5z m-327 -41 c0 -27 -3 -34 -11 -26 -7 7 -9 23
-5 37 9 37 16 32 16 -11z m-63 -5 c-3 -7 -5 -2 -5 12 0 14 2 19 5 13 2 -7 2
-19 0 -25z m2013 8 c0 -11 -19 -15 -25 -6 -3 5 1 10 9 10 9 0 16 -2 16 -4z
m-113 -32 c-9 -9 -28 6 -21 18 4 6 10 6 17 -1 6 -6 8 -13 4 -17z m120 -24 c0
-16 -4 -27 -9 -24 -4 3 -8 0 -8 -5 0 -6 -5 -11 -12 -11 -9 0 -9 3 0 12 7 7 12
22 12 35 0 13 4 23 8 23 5 0 9 -13 9 -30z m-1869 -91 c-17 -11 -23 8 -8 26 6
8 9 19 5 25 -3 5 -3 16 2 23 5 7 9 -3 11 -27 2 -24 -2 -42 -10 -47z m-108 62
c0 -5 -7 -14 -15 -21 -16 -14 -18 -10 -9 14 6 17 24 22 24 7z m52 -63 c7 -21
-3 -108 -13 -108 -5 0 -9 -6 -9 -14 0 -8 -13 -24 -29 -36 -17 -11 -32 -29 -36
-39 -3 -10 -23 -24 -45 -31 -22 -7 -40 -16 -40 -20 0 -4 -6 -7 -12 -7 -7 -1
-31 -4 -52 -7 -22 -3 -45 -1 -52 5 -10 8 -18 7 -29 -5 -9 -9 -12 -16 -6 -16 6
0 11 -7 11 -15 0 -21 -13 -19 -30 5 -8 11 -20 20 -26 20 -6 0 -17 6 -24 14 -6
8 -18 12 -26 9 -15 -6 -17 10 -5 41 6 16 8 17 13 4 10 -25 58 -11 55 16 -1 16
4 21 20 21 27 1 40 13 45 40 4 25 17 35 46 35 14 0 22 6 22 18 0 13 9 17 36
18 20 0 39 6 43 13 6 10 11 10 22 -1 20 -19 50 -22 43 -5 -6 17 21 43 31 27
10 -17 25 -11 25 10 0 22 15 27 22 8z m1968 4 c0 -14 -11 -21 -26 -15 -8 3
-11 9 -8 14 7 11 34 12 34 1z m-2076 -17 c3 -8 1 -15 -3 -15 -5 0 -11 7 -15
15 -3 8 -1 15 3 15 5 0 11 -7 15 -15z m2013 -17 c-3 -7 -5 -2 -5 12 0 14 2 19
5 13 2 -7 2 -19 0 -25z m-1867 -24 c0 -14 -4 -23 -10 -19 -5 3 -10 15 -10 26
0 10 5 19 10 19 6 0 10 -12 10 -26z m1050 7 c0 -6 -4 -13 -10 -16 -5 -3 -10 1
-10 9 0 9 5 16 10 16 6 0 10 -4 10 -9z m830 -26 c0 -8 -2 -15 -4 -15 -2 0 -6
7 -10 15 -3 8 -1 15 4 15 6 0 10 -7 10 -15z m-2253 -17 c-3 -8 -6 -5 -6 6 -1
11 2 17 5 13 3 -3 4 -12 1 -19z m1444 -5 c-8 -15 -10 -15 -11 -2 0 17 10 32
18 25 2 -3 -1 -13 -7 -23z m801 -18 c0 -8 1 -21 2 -27 1 -7 -8 -13 -19 -13
-15 0 -19 -6 -18 -22 2 -13 -2 -23 -7 -23 -6 0 -10 9 -10 20 0 11 -4 20 -10
20 -5 0 -10 -9 -10 -19 0 -11 -4 -22 -9 -25 -14 -9 -18 15 -7 41 10 21 24 27
53 24 18 -2 27 20 12 30 -11 7 -10 9 4 9 9 0 18 -7 19 -15z m-675 -51 c-3 -3
-12 -4 -19 -1 -8 3 -5 6 6 6 11 1 17 -2 13 -5z m153 -52 c-6 -2 -10 -13 -10
-25 -1 -12 -6 -32 -13 -45 l-13 -23 -12 27 c-9 18 -9 30 -3 38 7 9 7 16 0 23
-8 8 -8 13 0 17 6 4 11 0 11 -8 0 -10 6 -13 15 -10 8 4 15 14 15 23 0 14 2 14
10 1 6 -10 6 -16 0 -18z m452 -57 c-3 -5 -9 -28 -13 -50 -5 -32 -6 -27 -6 27
0 57 2 65 13 51 7 -10 9 -22 6 -28z m35 39 c-3 -3 -12 -4 -19 -1 -8 3 -5 6 6
6 11 1 17 -2 13 -5z m-652 -32 c-8 -8 -25 10 -19 20 4 6 9 5 15 -3 4 -7 6 -15
4 -17z m85 -2 c-15 -9 -50 -1 -50 12 0 5 8 4 19 -1 15 -8 21 -7 26 7 6 13 9
14 12 3 3 -7 0 -17 -7 -21z m-1810 10 c0 -5 -4 -10 -10 -10 -5 0 -10 5 -10 10
0 6 5 10 10 10 6 0 10 -4 10 -10z m110 -24 c0 -8 -4 -18 -10 -21 -5 -3 -10
-14 -10 -24 0 -12 -7 -18 -17 -17 -14 1 -19 -8 -21 -41 -3 -35 -7 -43 -23 -43
-10 0 -19 -4 -19 -10 0 -5 -17 -8 -37 -7 -33 2 -38 -1 -41 -20 -3 -19 -6 -21
-23 -13 -11 6 -23 8 -28 5 -5 -3 -12 3 -14 12 -4 15 -6 14 -12 -5 -7 -22 -8
-22 -28 -5 -14 13 -21 15 -24 6 -3 -7 -11 -13 -18 -13 -7 0 -16 -7 -19 -16 -3
-9 -11 -12 -18 -8 -9 6 -9 3 1 -9 12 -15 10 -18 -14 -27 -14 -5 -31 -10 -36
-10 -5 0 -9 -6 -9 -13 0 -8 -11 -19 -25 -25 -14 -6 -25 -16 -25 -22 0 -6 -5
-8 -10 -5 -6 4 -8 15 -5 26 4 11 2 19 -4 19 -6 0 -11 -11 -11 -24 0 -33 -20
-46 -66 -43 -32 2 -39 -1 -38 -15 2 -24 -19 -23 -41 2 -16 18 -20 19 -27 5
-15 -26 -28 -17 -28 20 0 29 -4 35 -22 35 -18 0 -15 5 21 36 23 20 40 39 37
41 -8 8 50 53 68 53 9 0 19 7 22 15 4 8 12 15 19 15 7 0 15 7 19 15 3 9 18 15
36 15 17 0 40 5 51 11 11 6 33 11 50 11 16 1 29 5 29 10 0 5 5 6 10 3 6 -3 10
-1 10 6 0 8 6 6 18 -4 25 -23 30 -22 60 10 16 18 27 23 30 15 5 -15 54 -16 70
0 9 9 12 9 12 0 0 -7 5 -12 10 -12 6 0 10 7 10 16 0 8 5 12 10 9 6 -3 10 3 10
14 0 24 4 25 29 11 14 -7 23 -5 36 10 21 23 55 27 55 6z m2184 -11 c3 -8 1
-15 -4 -15 -6 0 -10 7 -10 15 0 8 2 15 4 15 2 0 6 -7 10 -15z m2996 -5 c0 -11
-7 -20 -15 -20 -27 0 -18 30 13 39 1 1 2 -8 2 -19z m163 -27 c10 -13 23 -23
29 -23 17 0 47 -44 48 -70 0 -14 7 -47 15 -74 22 -73 20 -93 -10 -93 -20 0
-25 5 -25 24 0 23 -37 122 -50 133 -3 3 -14 31 -23 63 -10 31 -22 55 -28 52
-5 -4 -9 -1 -9 5 0 18 34 7 53 -17z m-2803 -8 c0 -8 -4 -15 -10 -15 -5 0 -10
-10 -10 -22 0 -12 -3 -19 -6 -15 -9 8 6 67 17 67 5 0 9 -7 9 -15z m-450 -5
c12 -8 11 -10 -7 -10 -13 0 -23 -5 -23 -12 0 -9 -3 -9 -12 0 -10 10 -10 15 2
22 19 12 21 12 40 0z m47 -12 c-3 -8 -6 -5 -6 6 -1 11 2 17 5 13 3 -3 4 -12 1
-19z m-23 -17 c3 -4 3 -11 0 -14 -8 -8 -34 3 -34 14 0 11 27 12 34 0z m136 5
c0 -3 -4 -8 -10 -11 -5 -3 -10 -1 -10 4 0 6 5 11 10 11 6 0 10 -2 10 -4z m247
-38 c-3 -7 -5 -2 -5 12 0 14 2 19 5 13 2 -7 2 -19 0 -25z m-467 -7 c0 -11 -3
-27 -6 -36 -10 -24 -22 0 -16 31 5 28 22 32 22 5z m110 9 c0 -5 -7 -10 -16
-10 -8 0 -12 5 -9 10 3 6 10 10 16 10 5 0 9 -4 9 -10z m397 -22 c-3 -7 -5 -2
-5 12 0 14 2 19 5 13 2 -7 2 -19 0 -25z m2639 -5 c-11 -11 -17 4 -9 23 7 18 8
18 11 1 2 -10 1 -21 -2 -24z m-3189 -5 c-3 -7 -5 -2 -5 12 0 14 2 19 5 13 2
-7 2 -19 0 -25z m70 0 c-3 -7 -5 -2 -5 12 0 14 2 19 5 13 2 -7 2 -19 0 -25z
m193 12 c0 -5 -4 -10 -10 -10 -5 0 -10 5 -10 10 0 6 5 10 10 10 6 0 10 -4 10
-10z m-360 -35 c-7 -9 -15 -13 -17 -11 -7 7 7 26 19 26 6 0 6 -6 -2 -15z m70
-11 c0 -14 -3 -14 -15 -4 -8 7 -15 14 -15 16 0 2 7 4 15 4 8 0 15 -7 15 -16z
m226 -9 c-9 -9 -16 -13 -16 -8 0 12 22 34 28 28 2 -2 -3 -11 -12 -20z m-66 5
c0 -5 -4 -10 -10 -10 -5 0 -10 -7 -10 -17 0 -9 -3 -14 -6 -10 -8 8 5 47 17 47
5 0 9 -4 9 -10z m-133 -42 c-3 -7 -5 -2 -5 12 0 14 2 19 5 13 2 -7 2 -19 0
-25z m160 10 c-3 -8 -6 -5 -6 6 -1 11 2 17 5 13 3 -3 4 -12 1 -19z m563 -30
c0 -16 -3 -19 -11 -11 -6 6 -8 16 -5 22 11 17 16 13 16 -11z m2760 -94 c6 -15
19 -38 29 -53 18 -27 27 -61 61 -240 13 -73 16 -110 9 -122 -6 -12 -6 -26 -1
-36 11 -22 -2 -191 -19 -248 -7 -22 -11 -62 -9 -90 6 -99 -3 -454 -15 -558 -5
-44 -3 -63 9 -82 9 -13 16 -32 16 -41 0 -9 9 -35 19 -58 11 -23 32 -71 47
-108 15 -38 31 -68 37 -68 5 0 6 -7 3 -16 -3 -9 2 -30 13 -48 10 -17 24 -58
31 -91 13 -63 39 -125 52 -125 4 0 8 -6 8 -14 0 -7 7 -19 15 -26 21 -18 19
-67 -2 -74 -30 -9 -143 0 -155 12 -7 7 -20 12 -30 12 -9 0 -28 11 -42 25 -14
14 -27 25 -28 25 -9 0 -116 108 -125 125 -5 11 -16 47 -23 80 -7 33 -17 64
-22 69 -13 16 -9 125 6 154 8 16 17 71 19 127 3 55 11 113 17 130 7 18 9 67 6
130 -7 138 -17 357 -17 376 0 10 -14 29 -30 43 -16 14 -29 31 -29 37 0 6 -6 9
-14 6 -9 -4 -18 5 -26 22 -6 16 -24 38 -41 50 -16 12 -29 26 -29 32 0 6 -23
32 -51 60 -27 27 -48 53 -44 58 3 5 -3 16 -12 23 -35 25 -52 79 -51 158 1 41
4 80 8 85 4 6 10 21 13 35 5 22 12 26 47 27 22 1 40 -2 40 -8 0 -5 6 -9 14 -9
7 0 21 -15 29 -33 9 -18 27 -46 41 -62 15 -17 33 -44 41 -61 8 -18 22 -34 30
-38 8 -3 15 -11 15 -18 0 -7 12 -22 27 -32 21 -15 29 -17 44 -8 10 7 25 12 33
12 11 0 13 27 10 158 -2 86 -4 174 -3 194 0 20 -5 39 -11 43 -5 3 -10 24 -10
46 0 32 3 39 20 39 13 0 24 -10 30 -26z m-2677 -31 c7 -9 5 -13 -7 -13 -11 0
-16 8 -15 28 0 15 3 21 6 12 3 -8 10 -21 16 -27z m-2883 -9 c0 -2 -7 -4 -15
-4 -8 0 -15 4 -15 10 0 5 7 7 15 4 8 -4 15 -8 15 -10z m-570 -20 c0 -8 -4 -12
-10 -9 -5 3 -10 10 -10 16 0 5 5 9 10 9 6 0 10 -7 10 -16z m3498 -12 c5 -31
-15 -27 -21 3 -3 16 0 24 7 22 6 -2 12 -13 14 -25z m-2931 -6 c-5 -17 -47 -20
-47 -3 0 20 9 26 31 20 11 -3 18 -11 16 -17z m-707 -196 c0 -5 -5 -10 -11 -10
-5 0 -7 5 -4 10 3 6 8 10 11 10 2 0 4 -4 4 -10z m3817 -22 c-3 -8 -6 -5 -6 6
-1 11 2 17 5 13 3 -3 4 -12 1 -19z m28 -8 c3 -5 1 -10 -4 -10 -6 0 -11 5 -11
10 0 6 2 10 4 10 3 0 8 -4 11 -10z m1865 -98 c0 -15 -2 -15 -10 -2 -13 20 -13
33 0 25 6 -3 10 -14 10 -23z m-1653 -14 c-3 -8 -6 -5 -6 6 -1 11 2 17 5 13 3
-3 4 -12 1 -19z m-37 2 c0 -5 -5 -10 -11 -10 -5 0 -7 5 -4 10 3 6 8 10 11 10
2 0 4 -4 4 -10z m-43 -52 c-3 -7 -5 -2 -5 12 0 14 2 19 5 13 2 -7 2 -19 0 -25z
m-70 -40 c-3 -8 -6 -5 -6 6 -1 11 2 17 5 13 3 -3 4 -12 1 -19z m-4148 -261 c0
-12 -4 -31 -9 -42 -6 -15 -9 -8 -9 28 -1 30 3 46 9 42 6 -3 10 -16 9 -28z
m5311 -86 c0 -6 -4 -13 -10 -16 -5 -3 -10 1 -10 9 0 9 5 16 10 16 6 0 10 -4
10 -9z m1896 -88 c12 -27 27 -75 33 -108 18 -87 47 -140 98 -182 37 -30 43
-41 38 -61 -10 -40 -29 -52 -63 -43 -41 12 -82 41 -82 57 0 8 -4 14 -9 14 -12
0 -58 94 -70 145 -5 22 -17 60 -26 85 -24 62 -28 110 -9 103 8 -3 14 1 14 10
0 16 14 25 40 26 9 1 24 -19 36 -46z m-1801 17 c-10 -11 -20 -18 -23 -16 -5 6
21 35 32 36 5 0 1 -9 -9 -20z m-5092 -45 c-7 -21 -13 -19 -13 6 0 11 4 18 10
14 5 -3 7 -12 3 -20z m4205 4 c12 -8 22 -21 23 -29 0 -10 3 -9 8 4 5 14 10 16
15 7 4 -6 16 -9 25 -6 10 3 29 -3 43 -14 14 -11 28 -18 31 -15 3 3 20 6 39 7
18 1 32 7 31 12 -1 6 11 10 25 9 15 -1 26 -7 25 -13 -2 -6 1 -11 7 -11 6 0 10
7 10 15 0 11 11 15 40 15 22 0 40 5 40 11 0 21 18 -2 23 -31 4 -17 12 -29 19
-28 9 2 14 -13 16 -44 2 -36 0 -48 -11 -48 -7 0 -23 -11 -34 -24 -20 -22 -50
-27 -103 -14 -9 2 -16 -6 -18 -20 -4 -24 -11 -25 -54 -7 -14 5 -18 2 -18 -14
0 -20 -2 -20 -22 -9 -13 7 -27 12 -32 13 -13 0 -20 25 -8 25 6 0 8 17 5 42 -5
36 -4 40 10 35 10 -4 17 -2 17 3 0 6 -7 10 -16 10 -8 0 -12 5 -9 10 3 6 1 10
-4 10 -6 0 -11 -10 -11 -22 0 -19 -2 -20 -10 -8 -8 13 -11 12 -16 -6 -4 -15
-13 -21 -30 -20 -13 0 -24 4 -24 9 0 12 -20 8 -36 -7 -8 -8 -14 -20 -14 -26 0
-7 -7 -10 -15 -6 -8 3 -15 0 -15 -7 0 -9 -2 -9 -9 1 -6 10 -10 10 -21 -3 -7
-9 -19 -14 -26 -11 -7 3 -18 -8 -26 -25 -15 -33 -28 -38 -28 -10 0 11 -8 22
-19 26 -26 8 -16 55 11 55 22 0 57 36 58 59 0 11 -5 10 -20 -4 -11 -10 -20
-13 -20 -7 0 21 -32 13 -56 -14 -17 -18 -24 -21 -24 -10 0 23 -18 20 -25 -4
-9 -27 -33 -25 -38 3 -4 19 -4 18 -6 -5 0 -16 -5 -28 -11 -28 -5 0 -10 -7 -10
-15 0 -8 -7 -15 -15 -15 -8 0 -15 -4 -15 -10 0 -5 9 -10 19 -10 32 0 33 -16 2
-49 -19 -21 -32 -28 -37 -20 -5 8 -9 7 -15 -2 -7 -11 -10 -9 -15 9 -5 16 -11
21 -25 17 -11 -4 -19 -2 -19 3 0 6 -16 9 -35 8 -25 -2 -35 1 -35 11 0 8 4 12
9 9 14 -9 41 4 41 19 0 7 -4 15 -10 17 -6 2 -4 17 3 40 10 27 16 35 24 27 6
-6 16 -8 22 -5 11 7 -25 54 -36 48 -3 -2 -9 1 -13 8 -4 6 -21 12 -38 12 -18 1
-32 6 -32 13 0 18 -27 27 -34 12 -5 -9 -7 -9 -12 1 -8 18 -24 15 -25 -5 0 -11
-3 -13 -6 -5 -6 14 -39 16 -48 2 -11 -17 -39 -10 -78 19 -23 18 -34 32 -27 36
6 4 17 1 26 -5 9 -8 31 -10 62 -7 26 4 66 2 89 -2 23 -5 45 -5 48 -2 12 11
249 27 385 26 96 -1 142 -6 158 -16z m-4617 -104 c-2 -48 -6 -64 -11 -50 -5
11 -9 31 -10 45 -1 24 -1 24 -15 6 -13 -17 -15 -18 -15 -3 0 9 -3 16 -7 15
-13 -5 -11 16 4 38 8 13 23 21 36 20 21 -1 22 -5 18 -71z m6119 25 c0 -5 -5
-10 -11 -10 -5 0 -7 5 -4 10 3 6 8 10 11 10 2 0 4 -4 4 -10z m-1727 -117 c-7
-3 -13 -13 -13 -23 0 -10 -4 -22 -10 -25 -18 -11 -11 37 7 51 10 7 20 10 23 7
3 -3 -1 -8 -7 -10z m307 7 c0 -5 -5 -10 -11 -10 -5 0 -7 5 -4 10 3 6 8 10 11
10 2 0 4 -4 4 -10z m1397 -30 c-9 -21 -13 -58 -10 -104 2 -47 0 -64 -6 -51 -5
11 -6 32 -4 48 3 16 1 27 -6 27 -6 0 -11 -10 -11 -22 0 -16 -3 -19 -11 -11 -8
8 -7 17 4 33 8 12 13 30 10 40 -5 18 34 86 43 77 2 -2 -2 -19 -9 -37z m-1204
-15 c-7 -21 -13 -19 -13 6 0 11 4 18 10 14 5 -3 7 -12 3 -20z m-4930 -13 c20
-22 27 -83 10 -89 -21 -8 -53 35 -53 72 0 39 17 46 43 17z m4384 -24 c-3 -7
-5 -2 -5 12 0 14 2 19 5 13 2 -7 2 -19 0 -25z m705 -90 c-7 -7 -12 -8 -12 -2
0 14 12 26 19 19 2 -3 -1 -11 -7 -17z m48 -14 c0 -8 -4 -12 -10 -9 -5 3 -10
13 -10 21 0 8 5 12 10 9 6 -3 10 -13 10 -21z m-96 -12 c15 8 21 8 24 -1 2 -6
8 -9 13 -5 5 3 9 -8 9 -25 0 -23 4 -29 15 -25 11 5 15 -1 15 -20 0 -16 -7 -29
-17 -33 -10 -4 -21 -11 -25 -17 -5 -7 -8 -7 -8 2 0 6 -5 12 -11 12 -16 0 -39
-26 -39 -45 0 -18 -61 -85 -78 -85 -17 0 -25 -20 -13 -33 7 -10 1 -18 -24 -32
-19 -10 -35 -22 -35 -27 0 -4 -7 -8 -15 -8 -8 0 -19 -9 -25 -20 -6 -11 -24
-27 -40 -35 -29 -15 -30 -15 -31 7 -1 17 -2 19 -6 6 -5 -21 -48 -24 -60 -4 -4
7 -19 17 -32 21 -16 5 -21 4 -17 -4 8 -12 -10 -51 -23 -51 -5 0 -11 9 -14 20
-5 20 -6 20 -30 -2 -13 -13 -27 -30 -31 -38 -3 -8 -4 4 -2 28 2 23 2 42 -2 42
-11 0 -42 -34 -42 -47 0 -7 -9 -13 -20 -13 -24 0 -26 18 -4 34 17 13 21 62 9
120 -7 34 -6 38 11 34 10 -2 28 5 39 15 31 29 66 45 110 48 35 4 40 2 37 -15
-3 -17 -2 -18 12 -7 9 8 16 10 16 5 0 -4 12 4 28 18 15 14 35 28 45 31 9 4 17
13 17 22 0 8 5 15 10 15 6 0 10 -4 10 -10 0 -17 17 -11 22 8 3 10 11 19 19 20
15 2 80 9 91 11 5 1 18 22 29 47 15 30 25 42 32 35 7 -7 17 -7 31 1z m116 -44
c0 -5 -7 -8 -15 -8 -17 0 -18 2 -9 25 5 13 8 14 15 3 5 -7 9 -16 9 -20z m901
-8 c11 0 19 -7 20 -17 0 -15 2 -15 9 2 7 16 9 11 9 -20 0 -30 -2 -35 -8 -20
-7 16 -10 12 -16 -24 -4 -25 -3 -46 2 -50 6 -3 10 -31 11 -61 0 -37 -2 -47 -7
-30 -10 37 -23 8 -15 -35 5 -27 2 -41 -12 -56 -13 -14 -15 -22 -7 -30 17 -17
-45 -123 -77 -132 -16 -4 -18 -11 -13 -48 l6 -44 -22 19 c-20 18 -27 13 -22
-18 1 -5 -5 -3 -14 4 -13 11 -15 10 -9 -3 3 -9 1 -24 -5 -34 -9 -15 -11 -11
-13 22 -3 62 0 89 12 93 5 2 10 10 10 17 0 30 22 63 39 58 15 -6 15 -5 0 13
-25 29 -24 159 2 185 19 19 27 45 10 35 -5 -3 -11 9 -15 27 -5 23 -2 35 9 43
8 6 15 17 15 23 0 7 10 22 23 34 12 12 29 36 36 52 11 23 15 26 18 13 3 -10
13 -18 24 -18z m-1625 -237 c-11 -11 -17 4 -9 23 7 18 8 18 11 1 2 -10 1 -21
-2 -24z m3317 -208 c-26 -20 -57 -19 -49 1 3 9 6 20 6 26 0 6 9 8 20 5 11 -3
23 0 27 6 5 8 9 6 11 -6 2 -10 -5 -25 -15 -32z m-68 -14 c-7 -24 -23 -28 -31
-7 -7 18 18 48 29 36 5 -4 6 -17 2 -29z m-1759 -207 c-5 -13 -10 -14 -18 -6
-6 6 -8 18 -4 28 5 13 10 14 18 6 6 -6 8 -18 4 -28z m-35 -194 c5 0 9 6 9 13
0 6 7 -1 15 -16 11 -22 12 -33 3 -52 -6 -14 -17 -25 -24 -25 -7 0 -16 -5 -20
-12 -5 -7 -2 -9 7 -6 21 8 51 -17 47 -39 -3 -12 -11 -17 -26 -16 -14 2 -22 -3
-22 -12 0 -25 -24 -17 -37 12 -18 37 -16 58 4 79 17 16 16 17 -9 12 -27 -5
-27 -4 -25 43 1 26 4 44 7 41 11 -15 38 -11 46 5 7 16 8 15 11 -4 3 -13 9 -23
14 -23z m1756 -2 c-3 -7 -5 -2 -5 12 0 14 2 19 5 13 2 -7 2 -19 0 -25z"/>
<path d="M3761 9434 c0 -11 3 -14 6 -6 3 7 2 16 -1 19 -3 4 -6 -2 -5 -13z"/>
<path d="M2410 9073 c0 -16 6 -23 20 -23 11 0 20 5 20 12 0 6 -3 8 -7 5 -3 -4
-12 1 -19 11 -12 16 -13 15 -14 -5z"/>
<path d="M1295 8020 c-3 -5 -1 -10 4 -10 6 0 11 5 11 10 0 6 -2 10 -4 10 -3 0
-8 -4 -11 -10z"/>
<path d="M1400 7953 c0 -14 -6 -23 -15 -23 -9 0 -15 -9 -15 -24 0 -19 4 -23
19 -19 21 5 34 50 20 73 -7 12 -8 10 -9 -7z"/>
<path d="M1530 7664 c0 -14 4 -23 9 -20 5 3 7 15 4 26 -7 28 -13 25 -13 -6z"/>
<path d="M780 8086 c0 -2 7 -9 15 -16 12 -10 15 -10 15 4 0 9 -7 16 -15 16 -8
0 -15 -2 -15 -4z"/>
<path d="M4920 6575 c0 -8 4 -15 10 -15 5 0 7 7 4 15 -4 8 -8 15 -10 15 -2 0
-4 -7 -4 -15z"/>
<path d="M4666 6475 c-3 -8 -1 -15 3 -15 5 0 11 7 15 15 3 8 1 15 -3 15 -5 0
-11 -7 -15 -15z"/>
<path d="M4595 6430 c3 -5 13 -10 21 -10 8 0 14 5 14 10 0 6 -9 10 -21 10 -11
0 -17 -4 -14 -10z"/>
<path d="M4890 6425 c0 -11 -5 -15 -14 -12 -22 8 -66 -15 -66 -35 0 -11 5 -15
15 -12 9 4 15 0 15 -7 0 -8 12 -25 26 -38 18 -18 25 -33 22 -51 -4 -30 10 -33
51 -11 19 11 25 11 32 0 6 -10 9 -11 9 -1 0 6 5 12 10 12 6 0 10 -6 10 -12 0
-25 65 -87 93 -91 16 -2 32 -9 36 -16 14 -22 21 30 10 77 -7 33 -6 52 3 73 12
27 28 39 28 21 0 -4 9 -8 20 -9 23 -2 25 14 8 48 -9 16 -21 24 -36 23 -13 -1
-29 4 -35 10 -7 6 -25 17 -40 24 -23 10 -31 10 -43 -2 -8 -8 -14 -20 -14 -26
0 -7 -6 -8 -18 -1 -22 12 -48 9 -64 -7 -15 -15 -38 3 -38 29 0 10 -4 21 -10
24 -5 3 -10 -1 -10 -10z m231 -75 c6 18 7 14 3 -14 -14 -102 -84 -115 -82 -16
1 25 3 38 5 28 5 -18 30 -31 44 -22 5 3 10 15 10 27 2 20 2 19 7 -3 l5 -25 8
25z m9 -138 c0 -26 -5 -39 -13 -39 -8 0 -14 5 -15 11 0 6 -4 22 -8 35 -5 17
-4 22 4 17 7 -4 12 -2 12 3 0 6 5 11 10 11 6 0 10 -17 10 -38z"/>
<path d="M5226 6361 c-4 -5 -2 -12 3 -15 5 -4 12 -2 15 3 4 5 2 12 -3 15 -5 4
-12 2 -15 -3z"/>
<path d="M4760 6310 c0 -22 4 -28 15 -24 16 7 18 14 9 38 -10 26 -24 18 -24
-14z"/>
<path d="M4730 6239 c0 -28 5 -38 20 -42 23 -6 35 21 25 54 -6 17 -9 19 -16 8
-8 -12 -11 -12 -19 1 -7 11 -10 6 -10 -21z"/>
<path d="M4920 6194 c0 -8 5 -12 10 -9 6 4 8 11 5 16 -9 14 -15 11 -15 -7z"/>
<path d="M5173 6175 c-10 -10 -9 -16 2 -25 13 -10 15 -8 15 14 0 30 -1 30 -17
11z"/>
<path d="M5030 6140 c0 -5 5 -10 10 -10 6 0 10 5 10 10 0 6 -4 10 -10 10 -5 0
-10 -4 -10 -10z"/>
<path d="M5450 6116 c0 -23 21 -64 36 -70 7 -3 23 3 34 12 25 20 19 48 -13 57
-12 4 -30 9 -39 11 -12 4 -18 0 -18 -10z"/>
<path d="M5052 6060 c0 -19 2 -27 5 -17 2 9 2 25 0 35 -3 9 -5 1 -5 -18z"/>
<path d="M5070 6046 c0 -8 5 -18 10 -21 6 -3 10 3 10 14 0 12 -4 21 -10 21 -5
0 -10 -6 -10 -14z"/>
<path d="M5285 6020 c-3 -5 1 -10 10 -10 9 0 13 5 10 10 -3 6 -8 10 -10 10 -2
0 -7 -4 -10 -10z"/>
<path d="M5300 5955 c0 -8 4 -15 10 -15 5 0 7 -8 4 -17 -5 -15 -3 -15 10 1 22
27 20 46 -4 46 -11 0 -20 -7 -20 -15z"/>
<path d="M5139 5842 c8 -6 11 -18 7 -30 -10 -30 14 -39 34 -12 9 13 22 20 28
16 6 -3 14 0 19 8 4 7 17 16 28 20 11 3 7 3 -10 0 -37 -6 -41 -6 -85 2 -23 3
-31 2 -21 -4z"/>
<path d="M5180 5563 c0 -5 5 -15 10 -23 8 -12 10 -11 10 8 0 12 -4 22 -10 22
-5 0 -10 -3 -10 -7z"/>
<path d="M5210 5546 c0 -9 5 -16 10 -16 6 0 10 4 10 9 0 6 -4 13 -10 16 -5 3
-10 -1 -10 -9z"/>
<path d="M5261 5244 c0 -11 3 -14 6 -6 3 7 2 16 -1 19 -3 4 -6 -2 -5 -13z"/>
<path d="M5382 5240 c13 -21 38 -27 38 -10 0 9 -31 30 -44 30 -4 0 -1 -9 6
-20z"/>
<path d="M6571 4874 c0 -11 3 -14 6 -6 3 7 2 16 -1 19 -3 4 -6 -2 -5 -13z"/>
<path d="M4750 4733 c0 -4 4 -15 10 -23 7 -12 10 -11 16 5 7 18 8 18 16 -1 8
-18 8 -18 5 1 -2 19 -47 36 -47 18z"/>
<path d="M4822 4721 c-8 -5 -12 -17 -10 -27 2 -15 5 -13 15 9 14 30 14 30 -5
18z"/>
<path d="M4770 4681 c0 -6 5 -13 10 -16 6 -3 10 1 10 9 0 9 -4 16 -10 16 -5 0
-10 -4 -10 -9z"/>
<path d="M4730 4650 c0 -5 5 -10 10 -10 6 0 10 5 10 10 0 6 -4 10 -10 10 -5 0
-10 -4 -10 -10z"/>
<path d="M6927 3933 c-4 -3 -7 -11 -7 -17 0 -6 5 -5 12 2 6 6 9 14 7 17 -3 3
-9 2 -12 -2z"/>
<path d="M5291 3871 c-1 -27 2 -32 11 -23 8 8 8 17 0 34 -10 22 -11 21 -11
-11z"/>
<path d="M6810 3860 c0 -5 5 -10 10 -10 6 0 10 5 10 10 0 6 -4 10 -10 10 -5 0
-10 -4 -10 -10z"/>
<path d="M5257 3830 c3 -11 9 -20 13 -20 5 0 6 9 3 20 -3 11 -9 20 -13 20 -5
0 -6 -9 -3 -20z"/>
<path d="M5180 3811 c0 -11 -4 -23 -10 -26 -6 -4 -4 -17 5 -35 15 -30 43 -129
52 -187 3 -18 9 -33 13 -33 5 0 10 -12 12 -27 2 -20 8 -27 21 -25 10 2 17 -3
17 -12 0 -10 -6 -13 -17 -9 -11 4 -14 3 -9 -5 4 -7 17 -10 29 -8 12 3 25 5 28
5 4 1 6 9 5 19 -1 12 5 16 21 14 21 -3 22 -1 19 85 -1 48 1 77 5 63 4 -14 7
-46 8 -72 1 -27 6 -48 11 -48 6 0 10 6 9 13 -1 6 1 20 6 30 4 10 2 23 -4 31
-21 25 -32 78 -20 93 6 7 7 13 2 13 -5 0 -17 -13 -26 -30 -17 -28 -19 -29 -36
-12 -10 9 -21 25 -24 35 -6 15 -4 16 14 6 19 -9 20 -9 10 10 -6 11 -11 31 -11
46 0 26 -32 47 -57 38 -6 -3 -13 6 -15 19 -4 31 -58 40 -58 9z m160 -301 c0
-5 -4 -10 -10 -10 -5 0 -10 5 -10 10 0 6 5 10 10 10 6 0 10 -4 10 -10z"/>
<path d="M5291 3814 c0 -11 3 -14 6 -6 3 7 2 16 -1 19 -3 4 -6 -2 -5 -13z"/>
<path d="M4332 3680 c5 -17 58 -27 58 -11 0 6 -7 8 -15 5 -8 -4 -23 0 -32 7
-14 12 -16 12 -11 -1z"/>
<path d="M6650 3633 c0 -22 2 -25 10 -13 13 20 13 40 0 40 -5 0 -10 -12 -10
-27z"/>
<path d="M6618 3614 c-3 -3 -3 -14 -1 -25 5 -16 8 -18 14 -7 16 25 6 51 -13
32z"/>
<path d="M4310 3570 c0 -5 5 -10 11 -10 5 0 7 5 4 10 -3 6 -8 10 -11 10 -2 0
-4 -4 -4 -10z"/>
<path d="M5417 3515 c4 -23 2 -35 -6 -35 -6 0 -11 5 -11 10 0 18 -18 11 -25
-9 -3 -11 -11 -22 -18 -24 -7 -2 -1 -2 11 0 14 2 21 0 18 -6 -4 -5 -2 -12 3
-15 5 -4 12 3 16 14 3 11 10 20 15 20 10 0 20 49 13 67 -10 27 -22 12 -16 -22z"/>
<path d="M5420 3394 c0 -8 5 -12 10 -9 6 3 10 10 10 16 0 5 -4 9 -10 9 -5 0
-10 -7 -10 -16z"/>
<path d="M5446 3375 c-9 -26 -7 -32 5 -12 6 10 9 21 6 23 -2 3 -7 -2 -11 -11z"/>
<path d="M5465 3337 c-4 -10 -5 -21 -1 -24 10 -10 18 4 13 24 -4 17 -4 17 -12
0z"/>
<path d="M5428 3285 c3 -20 7 -23 13 -13 7 10 9 10 9 -3 0 -23 36 -54 45 -39
10 17 -15 60 -35 60 -9 0 -21 5 -27 11 -7 7 -9 3 -5 -16z"/>
<path d="M6455 3170 c-10 -17 4 -62 18 -57 13 4 11 46 -3 60 -4 5 -11 4 -15
-3z"/>
<path d="M6260 3061 c-7 -13 -7 -22 0 -26 13 -8 30 3 30 20 0 23 -18 27 -30 6z"/>
<path d="M6470 3055 c0 -8 4 -15 10 -15 5 0 7 7 4 15 -4 8 -8 15 -10 15 -2 0
-4 -7 -4 -15z"/>
<path d="M5772 2785 c0 -16 2 -22 5 -12 2 9 2 23 0 30 -3 6 -5 -1 -5 -18z"/>
<path d="M4670 2771 c0 -6 4 -13 10 -16 6 -3 7 1 4 9 -7 18 -14 21 -14 7z"/>
<path d="M6010 2760 c0 -5 5 -10 11 -10 5 0 7 5 4 10 -3 6 -8 10 -11 10 -2 0
-4 -4 -4 -10z"/>
<path d="M5796 2742 c-2 -4 0 -14 5 -22 8 -13 10 -13 18 0 10 15 6 30 -9 30
-5 0 -11 -4 -14 -8z"/>
<path d="M6170 2716 c0 -24 18 -28 30 -6 9 17 8 20 -10 20 -11 0 -20 -6 -20
-14z"/>
<path d="M5915 2660 c-3 -5 1 -10 10 -10 9 0 13 5 10 10 -3 6 -8 10 -10 10 -2
0 -7 -4 -10 -10z"/>
<path d="M6100 2654 c0 -8 5 -12 10 -9 6 3 10 10 10 16 0 5 -4 9 -10 9 -5 0
-10 -7 -10 -16z"/>
<path d="M6005 2621 c-9 -16 5 -53 18 -48 13 4 11 36 -3 50 -4 5 -11 4 -15 -2z"/>
<path d="M4561 5654 c0 -11 3 -14 6 -6 3 7 2 16 -1 19 -3 4 -6 -2 -5 -13z"/>
<path d="M4625 5649 c-4 -6 -5 -13 -2 -16 7 -7 27 6 27 18 0 12 -17 12 -25 -2z"/>
<path d="M4176 5623 c-9 -9 -7 -33 3 -33 12 0 22 28 12 34 -5 3 -11 3 -15 -1z"/>
<path d="M4420 5501 c0 -6 5 -13 10 -16 6 -3 10 1 10 9 0 9 -4 16 -10 16 -5 0
-10 -4 -10 -9z"/>
<path d="M4386 5475 c-9 -26 -7 -32 5 -12 6 10 9 21 6 23 -2 3 -7 -2 -11 -11z"/>
<path d="M4251 5434 c0 -11 3 -14 6 -6 3 7 2 16 -1 19 -3 4 -6 -2 -5 -13z"/>
<path d="M4310 5390 c-13 -8 -12 -10 3 -10 9 0 17 5 17 10 0 12 -1 12 -20 0z"/>
<path d="M4810 5299 c0 -5 5 -7 10 -4 6 3 10 8 10 11 0 2 -4 4 -10 4 -5 0 -10
-5 -10 -11z"/>
<path d="M3545 5440 c4 -6 11 -8 16 -5 14 9 11 15 -7 15 -8 0 -12 -5 -9 -10z"/>
<path d="M3050 4430 c0 -5 5 -10 10 -10 6 0 10 5 10 10 0 6 -4 10 -10 10 -5 0
-10 -4 -10 -10z"/>
<path d="M3061 4271 c-15 -26 -12 -31 10 -22 11 4 14 12 9 26 -7 19 -7 19 -19
-4z"/>
<path d="M3065 4230 c-4 -6 -3 -16 3 -22 13 -13 23 4 13 21 -7 10 -10 10 -16
1z"/>
<path d="M3121 4148 c0 -10 -8 -18 -16 -18 -8 0 -15 -4 -15 -10 0 -12 10 -13
28 -1 8 5 12 17 9 27 -4 17 -5 17 -6 2z"/>
<path d="M3783 4093 c-21 -8 -15 -22 7 -16 11 3 20 9 20 14 0 10 -8 10 -27 2z"/>
<path d="M3595 4080 c-19 -8 -19 -9 2 -9 12 -1 25 4 28 9 7 12 -2 12 -30 0z"/>
<path d="M3835 4060 c-3 -5 -1 -10 4 -10 6 0 11 5 11 10 0 6 -2 10 -4 10 -3 0
-8 -4 -11 -10z"/>
<path d="M3225 4047 c-4 -10 -5 -21 -1 -24 10 -10 18 4 13 24 -4 17 -4 17 -12
0z"/>
<path d="M3348 4032 c-10 -2 -18 -10 -18 -18 0 -18 8 -18 27 1 18 18 15 23 -9
17z"/>
<path d="M3820 4017 c0 -8 7 -14 15 -14 11 0 12 4 4 14 -6 7 -13 13 -15 13 -2
0 -4 -6 -4 -13z"/>
<path d="M3372 3990 c0 -14 2 -19 5 -12 2 6 2 18 0 25 -3 6 -5 1 -5 -13z"/>
<path d="M3385 3931 c-6 -11 9 -23 19 -14 9 9 7 23 -3 23 -6 0 -12 -4 -16 -9z"/>
<path d="M3605 3930 c-3 -5 -1 -10 4 -10 6 0 11 5 11 10 0 6 -2 10 -4 10 -3 0
-8 -4 -11 -10z"/>
<path d="M3333 3923 c-7 -3 -13 -12 -13 -21 0 -15 2 -15 17 1 18 18 16 27 -4
20z"/>
<path d="M3770 3900 c0 -5 5 -10 10 -10 6 0 10 5 10 10 0 6 -4 10 -10 10 -5 0
-10 -4 -10 -10z"/>
<path d="M3560 3886 c0 -9 5 -16 10 -16 6 0 10 4 10 9 0 6 -4 13 -10 16 -5 3
-10 -1 -10 -9z"/>
<path d="M3501 3874 c0 -11 3 -14 6 -6 3 7 2 16 -1 19 -3 4 -6 -2 -5 -13z"/>
<path d="M3520 3840 c0 -5 5 -10 10 -10 6 0 10 5 10 10 0 6 -4 10 -10 10 -5 0
-10 -4 -10 -10z"/>
<path d="M3555 3840 c3 -5 8 -10 11 -10 2 0 4 5 4 10 0 6 -5 10 -11 10 -5 0
-7 -4 -4 -10z"/>
<path d="M3720 3805 c0 -8 5 -15 10 -15 6 0 10 7 10 15 0 8 -4 15 -10 15 -5 0
-10 -7 -10 -15z"/>
<path d="M3470 3780 c-23 -7 -23 -8 -3 -9 12 -1 25 4 28 9 3 6 5 10 3 9 -2 -1
-14 -5 -28 -9z"/>
<path d="M3643 3773 c9 -2 23 -2 30 0 6 3 -1 5 -18 5 -16 0 -22 -2 -12 -5z"/>
<path d="M3515 3740 c-4 -6 -2 -17 4 -24 6 -7 8 -24 5 -39 -2 -16 0 -27 7 -27
6 0 9 8 6 19 -2 10 -1 24 3 32 10 17 -15 56 -25 39z"/>
<path d="M3556 3695 c-3 -8 -1 -15 4 -15 6 0 10 7 10 15 0 8 -2 15 -4 15 -2 0
-6 -7 -10 -15z"/>
<path d="M2230 4400 c0 -5 5 -10 10 -10 6 0 10 5 10 10 0 6 -4 10 -10 10 -5 0
-10 -4 -10 -10z"/>
<path d="M2251 4344 c0 -11 3 -14 6 -6 3 7 2 16 -1 19 -3 4 -6 -2 -5 -13z"/>
<path d="M3370 3778 c0 -19 2 -20 10 -8 13 19 13 30 0 30 -5 0 -10 -10 -10
-22z"/>
<path d="M1522 3670 c0 -14 2 -19 5 -12 2 6 2 18 0 25 -3 6 -5 1 -5 -13z"/>
<path d="M1545 3669 c-4 -12 -2 -26 4 -32 8 -8 11 -2 11 21 0 37 -6 41 -15 11z"/>
<path d="M1361 3611 c-8 -5 -9 -11 -3 -15 5 -3 12 1 16 9 6 17 6 18 -13 6z"/>
<path d="M1170 3493 c0 -5 5 -15 10 -23 8 -12 10 -11 10 8 0 12 -4 22 -10 22
-5 0 -10 -3 -10 -7z"/>
<path d="M4726 2273 c-11 -11 -6 -23 9 -23 8 0 15 4 15 9 0 13 -16 22 -24 14z"/>
<path d="M5466 2025 c-3 -8 -1 -15 4 -15 6 0 10 7 10 15 0 8 -2 15 -4 15 -2 0
-6 -7 -10 -15z"/>
<path d="M5445 1987 c4 -14 2 -28 -4 -31 -13 -8 -15 -26 -3 -26 5 0 14 11 22
24 11 21 10 27 -4 42 -16 15 -17 15 -11 -9z"/>
<path d="M5490 2000 c0 -5 5 -10 10 -10 6 0 10 5 10 10 0 6 -4 10 -10 10 -5 0
-10 -4 -10 -10z"/>
<path d="M3947 9904 c37 -21 48 -24 80 -15 21 5 71 12 112 15 40 4 81 11 90
16 10 6 -42 9 -154 10 l-170 0 42 -26z"/>
<path d="M8517 4613 c5 -15 3 -16 -8 -5 -7 6 -21 12 -30 12 -14 0 -19 -13 -24
-66 -11 -94 -10 -104 13 -159 11 -28 23 -57 26 -65 27 -66 41 -75 129 -83 9
-1 17 -5 17 -10 0 -4 3 -6 8 -4 8 5 128 21 152 20 17 -1 48 -8 71 -18 10 -3
20 -2 23 4 4 6 18 3 37 -6 29 -15 32 -14 41 2 9 14 12 15 19 4 5 -8 9 -9 9 -3
0 6 11 12 25 12 15 0 25 -6 25 -14 0 -14 21 -13 68 2 6 2 12 0 12 -5 0 -5 35
-9 78 -10 42 -1 97 -3 122 -5 43 -4 198 -7 230 -4 8 0 52 -2 97 -6 45 -4 84
-3 86 1 7 11 55 17 130 18 l57 0 0 183 0 184 -34 -3 c-19 -2 -38 0 -42 3 -3 4
-37 4 -75 2 -44 -4 -75 -2 -83 5 -14 12 -271 17 -356 7 -48 -5 -54 -6 -97 -4
-16 1 -52 -1 -80 -4 -29 -4 -55 -3 -58 2 -3 4 -33 6 -68 3 -48 -3 -59 -2 -47
7 13 9 12 10 -5 6 -64 -16 -437 -8 -466 10 -5 3 -6 -3 -2 -13z"/>
<path d="M8332 3820 c0 -19 2 -27 5 -17 2 9 2 25 0 35 -3 9 -5 1 -5 -18z"/>
<path d="M8646 3787 c2 -37 8 -76 14 -87 5 -10 10 -37 10 -60 0 -59 21 -119
45 -126 11 -4 27 -12 35 -19 8 -8 42 -23 75 -36 33 -12 76 -33 95 -46 19 -12
40 -23 47 -23 7 0 13 -4 13 -10 0 -5 5 -10 11 -10 23 0 158 -158 159 -187 1
-4 14 -24 30 -43 17 -19 30 -40 30 -47 0 -7 4 -13 9 -13 5 0 12 -8 15 -18 4
-10 24 -32 47 -48 22 -16 46 -35 54 -41 7 -7 17 -13 21 -13 4 0 17 -8 28 -19
12 -10 44 -31 71 -46 28 -15 64 -38 82 -51 17 -13 36 -24 42 -24 6 0 11 -4 11
-8 0 -5 23 -19 52 -33 92 -42 228 -194 260 -291 7 -19 14 -145 18 -293 4 -170
7 33 8 588 1 546 -2 847 -8 847 -6 0 -10 -6 -10 -12 0 -7 -12 0 -27 17 -14 16
-28 25 -30 19 -3 -8 -19 -8 -56 -2 -28 5 -68 8 -89 6 -21 -2 -38 0 -38 4 0 13
-28 9 -33 -4 -4 -10 -8 -10 -15 1 -6 8 -19 12 -30 9 -12 -3 -30 1 -42 9 -17
12 -47 15 -124 14 -101 -1 -103 -1 -114 24 -6 14 -16 25 -22 25 -5 0 -10 7
-10 15 0 9 -9 15 -25 15 -16 0 -25 -6 -25 -15 0 -20 -10 -19 -25 2 -8 11 -26
16 -60 15 -32 0 -61 7 -89 22 -37 21 -48 22 -111 14 -130 -16 -135 -16 -135
-3 0 14 -35 27 -45 16 -4 -3 -30 -6 -58 -6 -43 0 -53 3 -59 20 -3 11 -5 -10
-2 -48z"/>
<path d="M810 3325 c0 -8 5 -15 10 -15 6 0 10 7 10 15 0 8 -4 15 -10 15 -5 0
-10 -7 -10 -15z"/>
<path d="M540 3041 c0 -5 7 -11 15 -15 9 -3 15 0 15 9 0 8 -7 15 -15 15 -8 0
-15 -4 -15 -9z"/>
<path d="M458 2883 c6 -2 18 -2 25 0 6 3 1 5 -13 5 -14 0 -19 -2 -12 -5z"/>
<path d="M510 2801 c0 -15 38 -20 44 -5 4 10 -2 14 -19 14 -14 0 -25 -4 -25
-9z"/>
<path d="M9226 2327 c-18 -18 -24 -39 -29 -93 -13 -146 5 -827 20 -774 15 51
37 82 72 98 36 18 39 18 59 1 12 -9 22 -25 22 -34 0 -9 4 -14 9 -10 6 3 13
-11 16 -32 4 -21 9 -45 11 -54 5 -18 51 -32 60 -18 3 5 6 90 7 189 2 179 2
181 -22 199 -26 20 -26 58 1 53 21 -3 28 37 28 165 l0 104 -30 17 c-16 9 -30
25 -30 35 0 9 -4 17 -9 17 -5 0 -12 15 -16 33 -13 69 -39 104 -87 118 -47 13
-56 12 -82 -14z m162 -327 c14 -40 -2 -102 -26 -98 -9 2 -23 8 -29 15 -7 6
-17 13 -22 15 -6 1 -17 20 -26 40 l-15 38 27 6 c16 3 33 7 38 9 29 10 44 3 53
-25z"/>
<path d="M9293 1311 c3 -11 1 -21 -4 -21 -5 0 -9 -5 -9 -11 0 -17 -27 -39 -48
-39 -12 0 -22 -9 -26 -22 -7 -28 -8 -221 -1 -240 9 -23 77 -10 99 19 19 25 19
27 1 60 -15 27 -16 38 -8 53 7 10 10 26 7 36 -6 23 56 97 63 77 3 -7 11 -13
19 -13 8 0 14 -10 14 -22 0 -12 7 -42 17 -66 13 -35 14 -50 5 -79 -6 -20 -9
-40 -6 -45 10 -16 34 -8 49 16 14 20 15 44 9 150 -8 138 -15 150 -58 99 l-23
-26 -28 39 c-16 21 -29 40 -30 40 0 1 -11 5 -24 9 -21 6 -23 5 -18 -14z"/>
<path d="M7468 92 l-3 -92 53 0 52 0 0 48 c0 74 -8 89 -46 96 -18 4 -38 14
-43 24 -7 12 -10 -11 -13 -76z"/>
<path d="M7720 144 c-35 -11 -35 -12 -38 -78 l-3 -66 46 0 45 0 0 74 c0 41 -3
77 -7 79 -5 2 -24 -2 -43 -9z"/>
<path d="M9550 141 c-34 -16 -35 -18 -38 -79 l-3 -62 34 0 34 0 7 77 c3 42 5
77 4 79 -2 1 -19 -5 -38 -15z"/>
<path d="M9722 128 c-5 -7 -12 -39 -14 -71 -3 -56 -2 -57 23 -57 19 0 28 6 33
22 19 74 -9 146 -42 106z"/>
<path d="M9910 88 c0 -7 -3 -30 -6 -51 -5 -30 -4 -37 10 -37 13 0 16 10 16 50
0 28 -4 50 -10 50 -5 0 -10 -6 -10 -12z"/>
</g>
</svg>
